<svg width="126" height="43" viewBox="0 0 126 43" fill="none" xmlns="http://www.w3.org/2000/svg">
<mask id="mask0_2305_11394" style="mask-type:luminance" maskUnits="userSpaceOnUse" x="0" y="0" width="126" height="43">
<path d="M125.733 0.630615H0.461914V42.3878H125.733V0.630615Z" fill="white"/>
</mask>
<g mask="url(#mask0_2305_11394)">
<path fill-rule="evenodd" clip-rule="evenodd" d="M0.461679 19.5207C0.965645 28.1745 7.70727 35.1825 16.531 36.0177C21.8068 36.5 25.9004 34.8082 28.943 32.3042C30.4981 31.0313 31.506 29.8232 32.7313 27.9773C33.4974 26.8354 35.1619 24.0233 35.1173 22.2004H25.3749C24.39 23.7598 23.5361 24.9247 21.9378 25.8246C18.6318 27.7138 13.9694 26.7922 11.6713 23.826C7.64247 18.664 10.6634 11.5465 15.6771 10.3615C17.7348 9.87768 19.9464 10.0533 21.6974 10.8654C24.1927 12.0519 25.0912 14.2276 25.287 14.3155H35.1403C35.2267 13.1952 33.542 9.83448 33.0164 8.99933C31.0452 5.83587 28.5067 3.52914 24.9818 2.07916C22.8795 1.20082 21.3907 1.00499 19.0263 0.630619C14.8665 0.388715 9.87576 2.167 6.78717 4.82506C6.56975 5.02376 6.35088 5.17639 6.13202 5.3751C2.18956 9.26284 0.329208 13.9627 0.461679 19.5207ZM66.032 17.3695C68.9219 17.0614 71.4388 19.4343 71.6793 21.8505C72.0968 26.2868 67.0601 29.4503 63.2947 26.3098C59.9887 23.5409 61.4992 17.8519 66.0305 17.368M52.327 9.43995V42.3878L61.4776 42.3446V32.9204C62.9232 34.3704 65.3307 35.7758 67.4978 35.7326C70.3661 35.6663 72.4453 35.0731 74.4597 33.8434C77.7657 31.8002 80.7665 28.199 80.9191 22.5085C80.9839 19.8303 80.0869 17.4573 78.9925 15.5682C76.9119 11.9655 72.2264 8.95614 67.6519 9.11021C65.528 9.175 64.2364 9.70345 62.726 10.8669C62.3084 11.1966 61.8721 11.6358 61.4776 11.8777V9.43995H52.327ZM110.629 17.4573C112.182 17.2601 113.583 17.8965 114.502 18.6208C117.765 21.2126 116.561 27.0341 111.766 27.6274C108.788 28.0017 106.338 25.6504 106.03 23.1032C105.68 20.3573 107.717 17.8533 110.629 17.4573ZM116.318 35.4475H125.71V9.46154H116.318L116.296 11.8993C115.771 11.3061 114.741 10.5386 113.801 10.0994C110.297 8.42913 106.247 9.41835 103.292 11.1966C101.256 12.4263 100.161 13.5912 98.9136 15.5898C97.6652 17.6114 97.0748 19.6532 96.9208 22.4869C96.7897 24.9693 97.8409 27.6706 98.8474 29.3624C101.256 33.4043 105.219 35.6447 110.122 35.7556C112.071 35.7988 113.603 35.1624 115.048 34.1069L116.296 33.1192L116.318 35.4475ZM84.3994 35.3798L93.5284 35.4014V0.827885H84.3994V35.3798ZM38.861 35.2948C39.9121 35.4043 45.9986 35.3596 47.6631 35.2948L47.6847 9.85752C47.6847 9.46154 47.1808 9.57242 46.8093 9.57242C45.5393 9.59402 39.2123 9.43995 38.992 9.65881C38.7084 9.94679 38.8826 13.2398 38.8826 13.8777L38.861 34.7448V35.2948ZM38.9503 6.53998C39.3002 6.62781 45.715 6.62781 47.1145 6.58318L47.5753 6.49678C47.5969 6.49678 47.6185 6.47518 47.6415 6.47518C47.7279 5.0036 47.7726 2.43338 47.6199 1.02659H39.1677C38.6868 1.02659 38.884 1.68607 38.884 2.10364C38.9056 2.96038 38.7977 6.21168 38.9503 6.53998Z" fill="#88898A"/>
</g>
</svg>
