<svg width="145" height="52" viewBox="0 0 145 52" fill="none" xmlns="http://www.w3.org/2000/svg">
<path fill-rule="evenodd" clip-rule="evenodd" d="M59.6384 28.8338L59.6425 28.6908C62.6783 27.6589 64.5599 25.8519 64.5599 22.6296V22.1323C64.5599 18.4313 61.5179 15.3872 55.3137 15.3872H46.7285V44.278H55.9354C61.9655 44.278 66.1016 41.2795 66.1016 36.4782V36.1881C66.1016 32.4436 63.874 29.7021 59.6363 28.8338M50.4854 18.6468H54.7749C58.8655 18.6468 60.9501 20.1802 60.9501 22.9238V23.214C60.9501 26.5274 58.0573 27.5884 54.2527 27.5884H50.4854V18.6468ZM62.2556 36.1466C62.2556 39.7212 59.4105 41.0578 55.2577 41.0578H50.4854V30.6428H55.3241C59.4125 30.6428 62.2556 31.9877 62.2556 35.6928V36.1466ZM78.3733 22.4037H79.457V25.7876H78.5826C75.0785 25.7876 72.7824 27.52 72.7824 32.1038V44.278H69.2804V22.4037H72.7824V26.3244H72.9503C73.5761 24.3433 75.2028 22.4037 78.3733 22.4037ZM82.5757 22.4037H86.0798V44.278H82.5778L82.5757 22.4037ZM86.4653 17.4947C86.4653 19.1856 85.6882 19.9772 84.3267 19.9772C82.9674 19.9772 82.1882 19.1856 82.1882 17.4947C82.1882 15.8058 82.9674 14.9666 84.3267 14.9666C85.6882 14.9666 86.4653 15.8058 86.4653 17.4947ZM105.517 38.252C105.517 42.4627 102.347 44.6904 97.7174 44.6904C93.0445 44.6904 89.9569 42.7093 89.7062 38.252H93.2124C93.3367 40.9355 95.3385 41.8017 97.7174 41.8017C100.096 41.8017 102.013 40.7697 102.013 38.4986C102.013 33.1751 89.9569 36.8491 89.9569 28.2246C89.9569 24.6314 92.628 21.9893 97.5081 21.9893C101.972 21.9893 104.933 24.1775 105.266 28.4297H101.764C101.555 25.8705 99.7606 24.88 97.5081 24.88C94.9634 24.88 93.3782 26.0342 93.3782 28.2246C93.3782 33.3823 105.517 30.2035 105.517 38.252ZM113.601 22.4037H118.357V25.4582H113.601V37.5495C113.601 40.7283 114.436 41.3873 116.564 41.3873C117.149 41.3873 117.816 41.3044 118.357 41.2629V44.2366C117.641 44.364 116.916 44.4333 116.189 44.4438C111.85 44.4438 110.097 42.7508 110.097 38.0862V25.4582H106.388V22.4037H110.101V15.3872H113.603L113.601 22.4037ZM128.707 21.9893C123.243 21.9893 120.325 25.7048 120.325 31.7308V34.9489C120.325 40.977 123.243 44.6883 128.709 44.6883C134.172 44.6883 137.091 40.977 137.091 34.9489V31.7308C137.091 25.7048 134.172 21.9914 128.709 21.9914M133.55 34.7458C133.55 39.9471 131.714 41.638 128.711 41.638C125.707 41.638 123.873 39.945 123.873 34.7458V31.94C123.873 26.7388 125.707 25.0458 128.711 25.0458C131.716 25.0458 133.55 26.7388 133.55 31.94V34.7458ZM140.799 15.3893H144.303V44.278H140.799V15.3893Z" fill="#88898A"/>
<path fill-rule="evenodd" clip-rule="evenodd" d="M14.4102 50.133C14.1337 50.6899 13.6488 51.1153 13.0607 51.317C12.4727 51.5188 11.8288 51.4805 11.2687 51.2106C3.89576 47.6754 0 41.4422 0 33.1865V23.8615C0 22.5768 1.05476 21.5365 2.34989 21.5365C2.96949 21.5343 3.56471 21.7778 4.00517 22.2135C4.44562 22.6493 4.6954 23.2419 4.69978 23.8615V33.1865C4.69978 39.6249 7.60088 44.2832 13.3202 47.0289C14.4868 47.5884 14.9759 48.9809 14.4102 50.133ZM7.45582 28.5199C7.45582 29.8399 8.53545 30.9071 9.86788 30.9071C11.2003 30.9071 12.2799 29.8399 12.2799 28.5219V9.49281C12.2799 8.17281 11.1982 7.10562 9.86788 7.10562C8.53545 7.10562 7.45582 8.17281 7.45582 9.49281V28.5199ZM14.9158 27.9687C14.9158 29.2845 15.9975 30.3517 17.3278 30.3517C18.6603 30.3517 19.7399 29.2845 19.7399 27.9687V2.38304C19.7399 1.06512 18.6623 0 17.3278 0C15.9975 0 14.9179 1.06512 14.9179 2.38304L14.9158 27.9687ZM22.3778 29.73C22.3778 31.0459 23.4595 32.1131 24.7899 32.1131C26.1223 32.1131 27.2019 31.0459 27.2019 29.73V6.75956C27.2019 5.44163 26.1223 4.37237 24.7899 4.37237C23.4574 4.37237 22.3778 5.44163 22.3778 6.75956V29.73ZM29.8399 32.7679C29.8399 34.0465 30.8884 35.0826 32.1794 35.0826C33.4725 35.0826 34.5189 34.0465 34.5189 32.7679V17.247C34.5189 15.9664 33.4725 14.9303 32.1773 14.9303C30.8884 14.9303 29.8399 15.9664 29.8399 17.245V32.7679Z" fill="#88898A"/>
</svg>
