<svg width="142" height="53" viewBox="0 0 142 53" fill="none" xmlns="http://www.w3.org/2000/svg">
<mask id="mask0_2305_11400" style="mask-type:luminance" maskUnits="userSpaceOnUse" x="0" y="0" width="142" height="53">
<path d="M141.16 0.2771H0.898438V52.5779H141.16V0.2771Z" fill="white"/>
</mask>
<g mask="url(#mask0_2305_11400)">
<path d="M67.0905 15.6487H73.1039C79.8602 15.6487 85.8165 17.8417 85.8165 26.3181C85.8165 34.7943 79.8602 36.9886 73.1039 36.9886H67.0893L67.0905 15.6487ZM71.5241 33.6164H73.9799C77.6719 33.6164 81.2307 30.9443 81.2307 26.3002C81.2307 21.6561 77.6719 19.0019 73.9799 19.0019H71.5241V33.6164ZM88.1392 15.6487H92.5538V24.8251L100.509 15.6487H105.933L96.8746 25.7106L106.312 36.9886H100.548L92.6311 27.074H92.5728V36.9886H88.1582V15.6487H88.1392ZM119.446 19.5546C118.025 18.9499 116.498 18.6366 114.954 18.6334C113.45 18.6334 111.49 19.2776 111.49 21.6003C111.49 25.3041 121.14 23.7375 121.14 30.8884C121.14 35.5694 117.314 37.3381 112.879 37.3381C110.482 37.3381 109.416 37.0255 107.228 36.5096L107.627 32.6583C109.149 33.45 110.882 33.9659 112.614 33.9659C114.288 33.9659 116.534 33.1362 116.534 31.2201C116.534 27.1667 106.865 28.8428 106.865 21.7845C106.865 17.0109 110.692 15.279 114.574 15.279C116.476 15.279 118.228 15.5191 119.845 16.0528L119.446 19.5546ZM123.48 15.6487H127.895V24.2736H136.727V15.6487H141.141V36.9886H136.727V27.6279H127.895V36.9898H123.48V15.6487ZM30.7021 17.1381C32.0156 14.1343 33.8806 11.8129 35.9168 10.7621C38.0682 9.65667 40.1995 10.5957 41.0363 11.0379C41.3216 11.1675 41.2836 11.3339 41.0173 11.5181C36.2401 14.7608 33.9377 19.7555 32.5101 24.1773C32.2629 21.6347 31.615 19.2206 30.7021 17.1381ZM32.6432 25.9127C36.6217 19.2598 43.3197 15.1685 47.3172 15.7212C49.3724 15.9981 50.4766 17.6741 50.895 18.4123C51.0472 18.6881 50.9521 18.8164 50.6288 18.8355C49.1632 18.9092 47.6975 19.2408 46.27 19.7745L43.9283 18.209L44.9185 20.3284C43.7432 20.8821 42.6109 21.5226 41.5308 22.2445L38.9431 21.0107L40.3695 23.0552C37.8971 24.8798 35.7456 26.9445 34.2039 28.5658C33.6904 29.0817 33.253 29.0638 32.5291 28.9533C32.6242 27.939 32.6622 26.9255 32.6432 25.9127Z" fill="#88898A"/>
<path d="M30.7016 37.4844C30.6826 37.0612 31.082 36.6737 31.6917 36.2506C33.7659 34.886 35.3266 34.3333 36.3346 35.3103C36.5248 35.4946 36.9634 35.7894 37.515 35.7525C39.6462 35.6051 42.5192 35.365 45.3363 35.4756L45.4504 33.0246L46.7258 35.5493C48.0013 35.6598 49.2577 35.8631 50.3798 36.1947L50.9705 33.8174L51.8073 36.7106C52.6822 37.1159 53.4631 37.6318 54.0717 38.2772C54.2809 38.5161 54.4521 38.4615 54.5864 38.1845C54.8907 37.5949 55.4042 36.2137 54.9288 34.9597C53.3478 30.8137 38.8463 28.749 31.177 36.0651C31.2341 35.9189 31.5574 35.0892 31.8249 34.5734C33.2322 31.9191 35.2506 30.1504 36.7542 31.1821C36.9634 31.3295 37.4008 31.4401 37.8763 31.219C39.6474 30.5177 41.8345 29.5977 44.1762 28.9154L43.7756 26.4834L45.5075 28.5279C46.9351 28.1594 48.4007 27.9014 49.8282 27.8468L49.619 25.3767L51.2938 27.8646C52.5681 27.9383 53.8055 28.2153 54.9478 28.749C55.2331 28.8975 55.3852 28.8048 55.3852 28.491C55.4042 27.7362 55.3091 26.0032 54.0147 24.9167C50.1896 21.617 37.0965 23.8469 31.6157 33.689C30.9108 34.9609 30.4543 36.9507 30.4543 36.9507C28.6274 35.7703 26.2287 34.2405 24.9544 35.3103C24.7452 35.4767 24.3256 35.7894 23.7741 35.7525C21.6619 35.6051 18.8448 35.365 16.0669 35.4756L15.9528 33.0436L14.6963 35.5493C13.4019 35.6598 12.1645 35.844 11.0234 36.1757L10.4528 33.8542L9.65288 36.6737C8.71979 37.0791 7.88298 37.6128 7.23635 38.3141C7.02714 38.5542 6.85598 38.4983 6.72166 38.2214C6.41736 37.614 5.90386 36.2315 6.37933 34.9965C7.90199 30.9789 20.5005 28.3995 30.2642 36.2327C29.7114 34.8491 26.1716 30.4083 24.4588 31.4781C24.2305 31.6065 23.8121 31.698 23.3367 31.5138C21.5656 30.7946 19.3785 29.8734 17.0558 29.1923L17.4552 26.7591L15.7233 28.8048C15.7233 28.8048 13.7062 28.2343 11.4038 28.1225L11.613 25.6537L9.93816 28.1416C8.6247 28.1962 7.36948 28.4732 6.22718 29.0081C5.9419 29.1365 5.78975 29.0628 5.78975 28.749C5.77073 27.9942 5.84681 26.2611 7.16027 25.1557C10.8142 22.0057 24.8023 24.7693 30.5114 35.5683C30.4163 32.2698 28.5893 27.9573 27.0667 28.4363C26.8194 28.51 26.4771 28.4363 26.1526 28.0679C22.6889 24.4555 17.3803 19.1292 10.7762 18.8166C10.4517 18.7975 10.3566 18.6692 10.5087 18.3922C10.9283 17.6552 12.0314 15.9602 14.0866 15.7023C19.4545 14.9653 28.0747 22.0972 30.7016 32.5277C32.0531 30.1314 31.5384 27.2572 30.093 26.834C29.8446 26.7591 29.6354 26.6676 29.5022 26.2064C28.8176 24.0502 28.1127 21.7288 27.0286 19.462L28.9697 18.2258H26.401C25.839 17.2011 25.1892 16.2271 24.4588 15.3148L26.325 13.7671L23.5078 14.2093C22.5679 13.2019 21.5213 12.2995 20.3864 11.5182C20.1202 11.334 20.0631 11.1687 20.3674 11.0214C21.2054 10.5792 23.3367 9.63895 25.487 10.7444C27.5231 11.7952 29.3881 14.1166 30.7016 17.1215V0.2771C14.2387 0.2771 0.898438 11.9794 0.898438 26.4275C0.898438 40.8578 14.2399 52.5779 30.7016 52.5779V37.4844Z" fill="#88898A"/>
</g>
</svg>
