<svg width="165" height="40" viewBox="0 0 165 40" fill="none" xmlns="http://www.w3.org/2000/svg">
<path d="M1.0083 12.7917V8.41753H19.8432V12.7917H13.0861V30.7017H7.77624V12.7917H1.0083ZM24.5111 30.7017H18.7224L26.2412 8.41753H33.4117L40.9304 30.7017H35.1418L29.908 14.0321H29.7339L24.5111 30.7017ZM23.7386 21.9316H35.8381V26.0229H23.7386V21.9316ZM39.8178 12.7917V8.41753H58.6527V12.7917H51.8957V30.7017H46.5858V12.7917H39.8178ZM63.3206 30.7017H57.532L65.0507 8.41753H72.2212L79.74 30.7017H73.9513L68.7176 14.0321H68.5435L63.3206 30.7017ZM62.5481 21.9316H74.6477V26.0229H62.5481V21.9316ZM112.149 8.41753V30.7017H106.774V13.4445H106.643L101.66 16.4912V11.8341L107.154 8.41753H112.149ZM117.119 30.7017V13.9886H122.178V17.057H122.363C122.711 16.0414 123.299 15.2399 124.126 14.6523C124.953 14.0647 125.939 13.7709 127.086 13.7709C128.246 13.7709 129.24 14.0684 130.067 14.6632C130.894 15.258 131.42 16.0559 131.645 17.057H131.819C132.131 16.0632 132.74 15.2689 133.647 14.6741C134.554 14.072 135.623 13.7709 136.857 13.7709C138.438 13.7709 139.722 14.2787 140.708 15.2943C141.695 16.3026 142.188 17.6881 142.188 19.4508V30.7017H136.868V20.6694C136.868 19.8352 136.654 19.2005 136.226 18.7653C135.798 18.3228 135.243 18.1015 134.561 18.1015C133.828 18.1015 133.251 18.3409 132.831 18.8197C132.417 19.2912 132.21 19.9259 132.21 20.7239V30.7017H127.096V20.615C127.096 19.8389 126.886 19.2259 126.465 18.7762C126.045 18.3264 125.49 18.1015 124.801 18.1015C124.336 18.1015 123.926 18.214 123.571 18.4389C123.216 18.6565 122.936 18.9684 122.733 19.3746C122.537 19.7808 122.439 20.2596 122.439 20.8109V30.7017H117.119ZM153.276 37.3173C151.687 37.3173 150.327 37.096 149.196 36.6535C148.064 36.211 147.175 35.6053 146.53 34.8364C145.884 34.0675 145.496 33.197 145.366 32.225L150.403 31.9421C150.498 32.283 150.672 32.5804 150.926 32.8343C151.187 33.0882 151.524 33.2841 151.938 33.4219C152.358 33.5597 152.852 33.6286 153.417 33.6286C154.31 33.6286 155.046 33.411 155.626 32.9758C156.214 32.5478 156.508 31.797 156.508 30.7234V27.7856H156.323C156.112 28.3006 155.793 28.7612 155.365 29.1674C154.937 29.5737 154.404 29.8928 153.766 30.125C153.135 30.3571 152.409 30.4732 151.589 30.4732C150.371 30.4732 149.254 30.1903 148.238 29.6244C147.23 29.0514 146.421 28.1664 145.812 26.9695C145.21 25.7653 144.909 24.2166 144.909 22.3233C144.909 20.372 145.22 18.7653 145.844 17.5031C146.468 16.2337 147.284 15.2943 148.292 14.6849C149.308 14.0756 150.4 13.7709 151.568 13.7709C152.445 13.7709 153.196 13.9233 153.82 14.2279C154.451 14.5254 154.97 14.9098 155.376 15.3813C155.782 15.8528 156.09 16.3425 156.301 16.8502H156.453V13.9886H161.752V30.7669C161.752 32.1815 161.397 33.3747 160.686 34.3468C159.975 35.3188 158.981 36.0551 157.704 36.5556C156.428 37.0634 154.952 37.3173 153.276 37.3173ZM153.439 26.5996C154.085 26.5996 154.636 26.4291 155.093 26.0881C155.55 25.7472 155.902 25.2576 156.149 24.6192C156.395 23.9809 156.518 23.2156 156.518 22.3233C156.518 21.4166 156.395 20.6368 156.149 19.9839C155.909 19.3238 155.557 18.8161 155.093 18.4606C154.636 18.1052 154.085 17.9275 153.439 17.9275C152.779 17.9275 152.221 18.1088 151.764 18.4715C151.307 18.8342 150.958 19.3456 150.719 20.0057C150.487 20.6586 150.371 21.4311 150.371 22.3233C150.371 23.2156 150.49 23.9809 150.73 24.6192C150.969 25.2576 151.314 25.7472 151.764 26.0881C152.221 26.4291 152.779 26.5996 153.439 26.5996Z" fill="#88898A"/>
<rect x="117.062" y="3.45435" width="44.0515" height="6.88305" fill="#88898A"/>
<rect x="106.05" y="32.3633" width="35.7919" height="6.88305" fill="#88898A"/>
</svg>
