<svg width="111" height="64" viewBox="0 0 111 64" fill="none" xmlns="http://www.w3.org/2000/svg">
<path d="M94.7301 4.25265L108.669 33.9461L94.7632 60.4651L15.2315 60.4651L1.84069 33.9469L15.2637 4.25265L94.7301 4.25265Z" stroke="#88898A" stroke-width="2.14139"/>
<path d="M23.5738 40.1013V22.7692H30.4118C31.7208 22.7692 32.8379 23.0034 33.7632 23.4716C34.6941 23.9343 35.4022 24.5916 35.8874 25.4435C36.3782 26.2898 36.6236 27.2856 36.6236 28.4309C36.6236 29.5819 36.3754 30.572 35.8789 31.4014C35.3824 32.2251 34.6631 32.857 33.7209 33.2971C32.7843 33.7372 31.6503 33.9572 30.3188 33.9572H25.7403V31.0121H29.7263C30.4259 31.0121 31.0071 30.9162 31.4697 30.7244C31.9324 30.5326 32.2765 30.2448 32.5022 29.8612C32.7335 29.4775 32.8492 29.0008 32.8492 28.4309C32.8492 27.8554 32.7335 27.3702 32.5022 26.9753C32.2765 26.5804 31.9295 26.2813 31.4612 26.0782C30.9986 25.8695 30.4147 25.7651 29.7094 25.7651H27.2382V40.1013H23.5738ZM32.9338 32.2139L37.2414 40.1013H33.1961L28.9816 32.2139H32.9338ZM44.8094 40.3552C43.4948 40.3552 42.358 40.0759 41.3989 39.5174C40.4454 38.9532 39.7091 38.1689 39.19 37.1647C38.671 36.1548 38.4114 34.9841 38.4114 33.6526C38.4114 32.3098 38.671 31.1362 39.19 30.132C39.7091 29.1221 40.4454 28.3378 41.3989 27.7793C42.358 27.2151 43.4948 26.933 44.8094 26.933C46.124 26.933 47.258 27.2151 48.2115 27.7793C49.1707 28.3378 49.9098 29.1221 50.4288 30.132C50.9479 31.1362 51.2074 32.3098 51.2074 33.6526C51.2074 34.9841 50.9479 36.1548 50.4288 37.1647C49.9098 38.1689 49.1707 38.9532 48.2115 39.5174C47.258 40.0759 46.124 40.3552 44.8094 40.3552ZM44.8263 37.5624C45.4244 37.5624 45.9237 37.3932 46.3243 37.0547C46.7249 36.7105 47.0267 36.2422 47.2298 35.6498C47.4386 35.0574 47.543 34.3832 47.543 33.6272C47.543 32.8711 47.4386 32.1969 47.2298 31.6045C47.0267 31.0121 46.7249 30.5438 46.3243 30.1997C45.9237 29.8555 45.4244 29.6834 44.8263 29.6834C44.2227 29.6834 43.7149 29.8555 43.303 30.1997C42.8968 30.5438 42.5893 31.0121 42.3806 31.6045C42.1774 32.1969 42.0759 32.8711 42.0759 33.6272C42.0759 34.3832 42.1774 35.0574 42.3806 35.6498C42.5893 36.2422 42.8968 36.7105 43.303 37.0547C43.7149 37.3932 44.2227 37.5624 44.8263 37.5624ZM59.4249 40.3552C58.0934 40.3552 56.9481 40.0731 55.989 39.5089C55.0355 38.9391 54.302 38.1492 53.7886 37.1393C53.2808 36.1294 53.0269 34.9671 53.0269 33.6526C53.0269 32.3211 53.2836 31.1532 53.7971 30.1489C54.3161 29.139 55.0524 28.3519 56.0059 27.7877C56.9594 27.2179 58.0934 26.933 59.408 26.933C60.542 26.933 61.535 27.1389 62.3869 27.5508C63.2389 27.9626 63.9131 28.5409 64.4096 29.2857C64.9061 30.0304 65.1797 30.9049 65.2305 31.9092H61.8284C61.7325 31.2604 61.4786 30.7385 61.0667 30.3435C60.6605 29.943 60.1273 29.7427 59.4672 29.7427C58.9087 29.7427 58.4206 29.895 58.0031 30.1997C57.5913 30.4987 57.2697 30.936 57.0384 31.5114C56.807 32.0869 56.6914 32.7837 56.6914 33.6018C56.6914 34.4311 56.8042 35.1364 57.0299 35.7175C57.2612 36.2986 57.5856 36.7415 58.0031 37.0462C58.4206 37.3509 58.9087 37.5032 59.4672 37.5032C59.8791 37.5032 60.2486 37.4186 60.5759 37.2493C60.9088 37.08 61.1824 36.8346 61.3968 36.513C61.6168 36.1858 61.7607 35.7937 61.8284 35.3367H65.2305C65.1741 36.3297 64.9033 37.2042 64.4181 37.9602C63.9385 38.7106 63.2756 39.2973 62.4293 39.7205C61.583 40.1436 60.5815 40.3552 59.4249 40.3552ZM71.144 32.5862V40.1013H67.5388V22.7692H71.0424V29.3957H71.1948C71.4881 28.6284 71.9621 28.0275 72.6165 27.5931C73.271 27.153 74.0919 26.933 75.0792 26.933C75.982 26.933 76.769 27.1305 77.4404 27.5254C78.1174 27.9147 78.6421 28.4761 79.0145 29.2095C79.3925 29.9373 79.5787 30.809 79.5731 31.8246V40.1013H75.9679V32.4677C75.9735 31.6666 75.7704 31.0432 75.3585 30.5974C74.9523 30.1517 74.3825 29.9289 73.649 29.9289C73.1582 29.9289 72.7237 30.0332 72.3457 30.242C71.9733 30.4507 71.68 30.7554 71.4656 31.156C71.2568 31.5509 71.1496 32.0277 71.144 32.5862ZM88.3343 40.3552C86.9972 40.3552 85.8462 40.0844 84.8814 39.5428C83.9223 38.9955 83.1832 38.2225 82.6642 37.2239C82.1451 36.2196 81.8856 35.032 81.8856 33.661C81.8856 32.3239 82.1451 31.1503 82.6642 30.1404C83.1832 29.1305 83.9138 28.3435 84.8561 27.7793C85.8039 27.2151 86.9154 26.933 88.1905 26.933C89.048 26.933 89.8464 27.0712 90.5855 27.3477C91.3302 27.6185 91.979 28.0275 92.5319 28.5748C93.0905 29.1221 93.5249 29.8104 93.8352 30.6398C94.1455 31.4635 94.3007 32.4283 94.3007 33.5341V34.5242H83.3243V32.29H90.9071C90.9071 31.771 90.7942 31.3111 90.5685 30.9106C90.3429 30.51 90.0297 30.1969 89.6292 29.9712C89.2342 29.7399 88.7744 29.6242 88.2497 29.6242C87.7024 29.6242 87.2172 29.7511 86.7941 30.005C86.3766 30.2533 86.0493 30.589 85.8124 31.0121C85.5754 31.4296 85.4541 31.8951 85.4485 32.4085V34.5327C85.4485 35.1759 85.5669 35.7316 85.8039 36.1999C86.0465 36.6682 86.3878 37.0293 86.8279 37.2832C87.268 37.537 87.7899 37.664 88.3936 37.664C88.7941 37.664 89.1609 37.6076 89.4937 37.4947C89.8266 37.3819 90.1115 37.2126 90.3485 36.987C90.5855 36.7613 90.766 36.4848 90.8901 36.1576L94.2245 36.3776C94.0553 37.1788 93.7083 37.8784 93.1836 38.4764C92.6645 39.0688 91.9931 39.5315 91.1694 39.8644C90.3513 40.1916 89.4063 40.3552 88.3343 40.3552Z" fill="#88898A"/>
</svg>
