<svg width="53" height="53" viewBox="0 0 53 53" fill="none" xmlns="http://www.w3.org/2000/svg">
<g clip-path="url(#clip0_2382_2383)">
<g clip-path="url(#clip1_2382_2383)">
<path d="M39.0388 0H13.0129C5.82608 0 0 5.82608 0 13.0129V39.0388C0 46.2256 5.82608 52.0517 13.0129 52.0517H39.0388C46.2256 52.0517 52.0517 46.2256 52.0517 39.0388V13.0129C52.0517 5.82608 46.2256 0 39.0388 0Z" fill="url(#paint0_linear_2382_2383)"/>
<path d="M33.694 19.689C28.5957 19.1645 27.1271 16.2273 27.0648 16.101C26.9386 15.8494 26.7083 15.7028 26.4354 15.7028C26.1625 15.7028 25.9109 15.8708 25.806 16.101C25.7216 16.2272 24.2325 19.1645 19.1343 19.689C18.7778 19.7308 18.5049 20.025 18.5049 20.402V25.542C18.5049 31.5843 25.7846 35.4024 26.0993 35.5705C26.2042 35.6123 26.3091 35.654 26.414 35.654C26.5189 35.654 26.6451 35.6328 26.7287 35.5705C27.0434 35.4025 34.3231 31.6057 34.3231 25.542V20.3814C34.3444 20.0249 34.0504 19.7308 33.694 19.689ZM32.9179 25.5419C32.9179 30.0525 27.7779 33.3258 26.4142 34.1222C25.0505 33.3256 19.9105 30.0737 19.9105 25.5419V21.0107C23.5819 20.4862 25.5119 18.7661 26.4142 17.6754C27.3165 18.7661 29.2464 20.4862 32.9179 21.0107V25.5419Z" fill="white"/>
<path d="M23.6875 23.339C23.6875 24.5978 24.548 25.6467 25.7019 25.9614V31.018C25.7019 31.4162 26.0166 31.7309 26.4149 31.7309C26.8131 31.7309 27.1279 31.4162 27.1279 31.018V30.2206H28.0088C28.4071 30.2206 28.7218 29.9059 28.7218 29.5076C28.7218 29.1093 28.4071 28.7946 28.0088 28.7946H27.1279V25.9615C28.2817 25.6468 29.1422 24.5979 29.1422 23.3391C29.1422 21.8287 27.9252 20.6117 26.4149 20.6117C24.9045 20.633 23.6875 21.8499 23.6875 23.339ZM27.7154 23.339C27.7154 24.052 27.1278 24.6395 26.4148 24.6395C25.7019 24.6395 25.1142 24.052 25.1142 23.339C25.1142 22.626 25.7019 22.0384 26.4148 22.0384C27.1278 22.0384 27.7154 22.626 27.7154 23.339Z" fill="white"/>
</g>
</g>
<defs>
<linearGradient id="paint0_linear_2382_2383" x1="26.0258" y1="0" x2="26.0258" y2="52.0517" gradientUnits="userSpaceOnUse">
<stop stop-color="#C884B5"/>
<stop offset="1" stop-color="#F18388"/>
</linearGradient>
<clipPath id="clip0_2382_2383">
<rect width="52.0517" height="52.0517" fill="white"/>
</clipPath>
<clipPath id="clip1_2382_2383">
<rect width="52.0517" height="52.0517" fill="white"/>
</clipPath>
</defs>
</svg>
