<svg width="53" height="53" viewBox="0 0 53 53" fill="none" xmlns="http://www.w3.org/2000/svg">
<g clip-path="url(#clip0_2382_2353)">
<path d="M39.0388 0H13.0129C5.82608 0 0 5.82608 0 13.0129V39.0388C0 46.2256 5.82608 52.0517 13.0129 52.0517H39.0388C46.2256 52.0517 52.0517 46.2256 52.0517 39.0388V13.0129C52.0517 5.82608 46.2256 0 39.0388 0Z" fill="url(#paint0_linear_2382_2353)"/>
<g clip-path="url(#clip1_2382_2353)">
<g clip-path="url(#clip2_2382_2353)">
<path d="M25.2755 20.6605C23.7831 20.6605 22.3526 21.2535 21.2975 22.3086C20.2424 23.3637 19.6494 24.7944 19.6494 26.2867C19.6494 27.7789 20.2424 29.2096 21.2975 30.2648C22.3526 31.3199 23.7833 31.9128 25.2755 31.9128C26.7678 31.9128 28.1985 31.3199 29.2536 30.2648C30.3087 29.2096 30.9017 27.7789 30.9017 26.2867C30.9001 24.7951 30.3063 23.3652 29.252 22.3102C28.1969 21.2559 26.767 20.6621 25.2755 20.6605ZM22.2353 30.0048C22.3276 28.4868 23.349 27.7244 25.2755 27.7244C27.2021 27.7244 28.2235 28.4867 28.3157 30.0048C27.458 30.7077 26.3845 31.0912 25.2755 31.0912C24.1666 31.0912 23.0931 30.7077 22.2353 30.0048ZM25.2755 26.6606C24.6521 26.6606 24.0905 26.2851 23.8522 25.7098C23.6138 25.1337 23.7454 24.471 24.1859 24.0305C24.6264 23.59 25.2892 23.4584 25.8653 23.6967C26.4406 23.935 26.8161 24.4966 26.8161 25.1201C26.8161 25.5285 26.654 25.92 26.3652 26.2097C26.0763 26.4986 25.684 26.6606 25.2755 26.6606ZM29.0363 29.2715C28.7675 28.1025 27.9459 27.3403 26.6438 27.041C27.4814 26.4449 27.8377 25.3761 27.5248 24.3973C27.2126 23.4184 26.3028 22.7532 25.275 22.7532C24.2472 22.7532 23.3372 23.4184 23.0243 24.3973C22.7122 25.3761 23.0685 26.4449 23.9053 27.041C22.6055 27.3403 21.7839 28.1026 21.515 29.2715C20.7608 28.3231 20.3933 27.1252 20.4848 25.9177C20.5771 24.7101 21.1211 23.5812 22.0101 22.7579C22.8983 21.9347 24.0641 21.4773 25.2756 21.4773C26.4871 21.4773 27.653 21.9347 28.5412 22.7579C29.4302 23.5812 29.9742 24.7101 30.0665 25.9177C30.1579 27.1252 29.7905 28.3232 29.0363 29.2715Z" fill="white" stroke="white" stroke-width="0.0513514"/>
<path d="M33.4687 23.697L32.0927 23.4627L32.875 22.349C33.3059 21.7962 33.2569 21.0091 32.7618 20.5132L31.0408 18.7922C30.5577 18.3003 29.7859 18.2425 29.2354 18.6566L28.0913 19.4782L27.861 18.1326C27.7743 17.437 27.1838 16.9154 26.4825 16.9146H24.0586C23.3701 16.9082 22.7836 17.4137 22.6865 18.0957L22.4506 19.4798L21.3353 18.687C20.7825 18.2562 19.9954 18.3051 19.4987 18.8002L17.7776 20.5212C17.2866 21.0043 17.228 21.7761 17.642 22.3266L18.4637 23.4707L17.1165 23.701C16.4208 23.7877 15.8993 24.3782 15.8985 25.0795V27.5035C15.8921 28.1919 16.3976 28.7784 17.0796 28.8755L18.4637 29.1098L17.6749 30.2267C17.2433 30.7795 17.2922 31.5674 17.7881 32.0633L19.5091 33.7844C19.7699 34.0475 20.1246 34.1952 20.4953 34.1952C20.7913 34.1976 21.0802 34.1013 21.3169 33.9224L22.461 33.1008L22.6913 34.4463V34.4455C22.778 35.1412 23.3685 35.6627 24.069 35.6635H26.4913C27.1798 35.6699 27.7663 35.1644 27.8634 34.4824L28.0993 33.0983L29.2146 33.8871C29.4593 34.0772 29.7594 34.1807 30.0691 34.1807C30.4382 34.1807 30.792 34.0331 31.0512 33.7699L32.7722 32.0505C33.2633 31.5682 33.3219 30.7964 32.9078 30.2451L32.0862 29.101L33.4318 28.8707C34.1266 28.784 34.649 28.1935 34.6498 27.493V25.0707C34.6546 24.3822 34.1507 23.7957 33.4687 23.697ZM33.8362 27.505C33.8338 27.7971 33.6115 28.041 33.3211 28.0699L31.312 28.4109C31.1724 28.4342 31.0544 28.528 31.0007 28.6588C30.9461 28.7888 30.963 28.9389 31.0448 29.0536L32.2468 30.7458V30.7466C32.412 30.9713 32.3872 31.2834 32.189 31.48L30.4679 33.201C30.2601 33.4088 29.9287 33.4241 29.7033 33.2355L28.0416 32.0568C27.9268 31.975 27.7768 31.9581 27.6468 32.0127C27.516 32.0665 27.4221 32.1844 27.3989 32.324L27.0514 34.3781C27.0097 34.6549 26.7706 34.8587 26.4914 34.8563H24.0586C23.7665 34.8539 23.5234 34.6316 23.4937 34.3412L23.1527 32.3321H23.1535C23.1294 32.1932 23.0355 32.0761 22.9048 32.0224C22.774 31.9686 22.6255 31.9854 22.51 32.0673L20.8178 33.2692V33.2684C20.5915 33.4289 20.2826 33.4048 20.0845 33.2115L18.3634 31.4904V31.4896C18.158 31.2818 18.1435 30.952 18.3281 30.7257L19.5068 29.064H19.5075C19.5894 28.9485 19.6054 28.7992 19.5517 28.6685C19.4971 28.5385 19.38 28.4446 19.2404 28.4213L17.1863 28.0739C16.9095 28.0322 16.7057 27.7931 16.7073 27.5131V25.0706C16.7105 24.7785 16.932 24.5354 17.2232 24.5057L19.2323 24.1647L19.2315 24.1655C19.3711 24.1414 19.4891 24.0484 19.5436 23.9176C19.5974 23.7868 19.5805 23.6375 19.4987 23.522L18.2968 21.8298H18.2976C18.1323 21.6051 18.1563 21.293 18.3545 21.0965L20.0756 19.3754H20.0764C20.285 19.17 20.614 19.1555 20.8403 19.3401L22.5019 20.5188V20.5196C22.6175 20.6014 22.7667 20.6174 22.8975 20.5637C23.0283 20.5091 23.1214 20.392 23.1446 20.2524L23.4921 18.1983C23.5338 17.9215 23.7729 17.7177 24.0529 17.7193H26.4913C26.7834 17.7225 27.0265 17.944 27.0562 18.2352L27.3972 20.2444L27.3964 20.2436C27.4205 20.3832 27.5143 20.5003 27.6451 20.5541C27.7759 20.6078 27.9243 20.591 28.0399 20.5091L29.7321 19.3072C29.9567 19.1419 30.2688 19.1668 30.4654 19.3649L32.1865 21.086C32.3919 21.2946 32.4063 21.6236 32.2218 21.8499L31.0431 23.5116H31.0423C30.9605 23.6271 30.9444 23.7764 30.9982 23.9071C31.0527 24.0379 31.1699 24.1318 31.3095 24.1551L33.3371 24.5001H33.3555C33.6324 24.5418 33.8361 24.7809 33.8345 25.0609L33.8362 27.505Z" fill="white" stroke="white" stroke-width="0.0513514"/>
</g>
</g>
</g>
<defs>
<linearGradient id="paint0_linear_2382_2353" x1="26.0258" y1="0" x2="26.0258" y2="52.0517" gradientUnits="userSpaceOnUse">
<stop stop-color="#C984B4"/>
<stop offset="1" stop-color="#F08389"/>
</linearGradient>
<clipPath id="clip0_2382_2353">
<rect width="52.0517" height="52.0517" fill="white"/>
</clipPath>
<clipPath id="clip1_2382_2353">
<rect width="19" height="19" fill="white" transform="translate(15.7754 16.7871)"/>
</clipPath>
<clipPath id="clip2_2382_2353">
<rect width="19" height="19" fill="white" transform="translate(15.7754 16.7871)"/>
</clipPath>
</defs>
</svg>
