<svg width="53" height="53" viewBox="0 0 53 53" fill="none" xmlns="http://www.w3.org/2000/svg">
<g clip-path="url(#clip0_2382_2346)">
<g clip-path="url(#clip1_2382_2346)">
<path d="M39.0388 0H13.0129C5.82608 0 0 5.82608 0 13.0129V39.0388C0 46.2256 5.82608 52.0517 13.0129 52.0517H39.0388C46.2256 52.0517 52.0517 46.2256 52.0517 39.0388V13.0129C52.0517 5.82608 46.2256 0 39.0388 0Z" fill="url(#paint0_linear_2382_2346)"/>
<g clip-path="url(#clip2_2382_2346)">
<g clip-path="url(#clip3_2382_2346)">
<path d="M33.1959 23.8067L31.923 23.59L32.6467 22.5599C33.0452 22.0485 32.9999 21.3204 32.542 20.8617L30.95 19.2698C30.5032 18.8148 29.7892 18.7613 29.2801 19.1443L28.2217 19.9043L28.0087 18.6597C27.9286 18.0162 27.3823 17.5338 26.7337 17.533H24.4915C23.8547 17.5271 23.3121 17.9947 23.2223 18.6255L23.0041 19.9058L21.9725 19.1725C21.4611 18.7739 20.733 18.8192 20.2736 19.2772L18.6816 20.8691C18.2274 21.316 18.1732 22.0299 18.5562 22.5391L19.3162 23.5974L18.0701 23.8104C17.4266 23.8906 16.9442 24.4368 16.9434 25.0855V27.3277C16.9375 27.9645 17.4051 28.507 18.0359 28.5969L19.3162 28.8136L18.5866 29.8467C18.1873 30.3581 18.2326 31.0869 18.6913 31.5456L20.2833 33.1375C20.5245 33.381 20.8525 33.5175 21.1954 33.5175C21.4693 33.5198 21.7365 33.4307 21.9554 33.2652L23.0138 32.5052L23.2268 33.7499V33.7491C23.3069 34.3926 23.8532 34.875 24.5011 34.8758H26.7418C27.3786 34.8817 27.9211 34.4141 28.0109 33.7833L28.2291 32.503L29.2608 33.2325C29.4871 33.4084 29.7647 33.5042 30.0512 33.5042C30.3926 33.5042 30.7199 33.3676 30.9596 33.1242L32.5516 31.5337C33.0058 31.0876 33.06 30.3736 32.6771 29.8637L31.9171 28.8054L33.1617 28.5924C33.8044 28.5122 34.2876 27.966 34.2883 27.3181V25.0774C34.2928 24.4406 33.8267 23.898 33.1959 23.8067ZM33.5358 27.3291C33.5336 27.5993 33.328 27.8249 33.0593 27.8516L31.2009 28.1671C31.0717 28.1886 30.9627 28.2754 30.9129 28.3964C30.8625 28.5166 30.878 28.6554 30.9538 28.7616L32.0656 30.3268V30.3276C32.2184 30.5354 32.1954 30.8241 32.0121 31.006L30.4201 32.5979C30.2279 32.7902 29.9214 32.8043 29.7128 32.6299L28.1757 31.5396C28.0696 31.4639 27.9308 31.4483 27.8106 31.4987C27.6896 31.5485 27.6028 31.6576 27.5813 31.7867L27.2599 33.6867C27.2213 33.9428 27.0001 34.1313 26.7418 34.1291H24.4915C24.2213 34.1268 23.9964 33.9212 23.969 33.6526L23.6535 31.7941H23.6543C23.632 31.6658 23.5452 31.5574 23.4242 31.5077C23.3032 31.4579 23.1659 31.4735 23.059 31.5492L21.4938 32.661V32.6603C21.2845 32.8087 20.9987 32.7865 20.8154 32.6076L19.2234 31.0156V31.0149C19.0334 30.8226 19.0201 30.5176 19.1908 30.3083L20.281 28.7712H20.2818C20.3575 28.6643 20.3723 28.5263 20.3226 28.4053C20.2721 28.2851 20.1638 28.1983 20.0346 28.1767L18.1346 27.8554C17.8786 27.8168 17.6901 27.5956 17.6916 27.3366V25.0773C17.6945 24.8071 17.8994 24.5822 18.1688 24.5548L20.0272 24.2393L20.0265 24.2401C20.1556 24.2178 20.2647 24.1317 20.3152 24.0107C20.3649 23.8898 20.3493 23.7517 20.2736 23.6449L19.1618 22.0796H19.1625C19.0097 21.8718 19.0319 21.583 19.2152 21.4012L20.8072 19.8092H20.808C21.0009 19.6192 21.3052 19.6059 21.5146 19.7766L23.0516 20.8669V20.8676C23.1585 20.9433 23.2965 20.9581 23.4175 20.9084C23.5385 20.858 23.6246 20.7496 23.6461 20.6205L23.9675 18.7205C24.0061 18.4644 24.2272 18.2759 24.4863 18.2774H26.7418C27.0119 18.2803 27.2368 18.4852 27.2643 18.7546L27.5797 20.613L27.5789 20.6123C27.6012 20.7414 27.6881 20.8498 27.809 20.8995C27.93 20.9492 28.0673 20.9337 28.1742 20.8579L29.7395 19.7461C29.9473 19.5932 30.236 19.6163 30.4178 19.7996L32.0098 21.3916C32.1998 21.5845 32.2132 21.8888 32.0425 22.0981L30.9522 23.6352H30.9514C30.8757 23.7421 30.8609 23.8801 30.9106 24.0011C30.9611 24.1221 31.0695 24.2089 31.1986 24.2304L33.0741 24.5496H33.0912C33.3472 24.5882 33.5357 24.8093 33.5342 25.0684L33.5358 27.3291Z" fill="white" stroke="white" stroke-width="0.0475"/>
<path d="M25.5832 22.0478C25.5565 22.0511 25.5306 22.0579 25.5058 22.068L21.6465 23.5461C21.5344 23.5883 21.4609 23.6901 21.4609 23.803V28.6068C21.4621 28.7186 21.5355 28.8186 21.6465 28.8608L25.5058 30.3389C25.5774 30.3656 25.657 30.3656 25.7285 30.3389L29.5879 28.8608C29.6988 28.8186 29.7723 28.7186 29.7734 28.6068V23.803C29.7734 23.6901 29.7 23.5883 29.5879 23.5461L25.7285 22.068C25.6825 22.05 25.6326 22.0431 25.5832 22.0478ZM25.6172 22.6223L28.7003 23.8001L25.6172 24.9808L22.534 23.8001L25.6172 22.6223ZM22.0547 24.213L25.3203 25.463V29.672L22.0547 28.422V24.213ZM29.1797 24.213V28.422L25.9141 29.672V25.463L29.1797 24.213Z" fill="white" stroke="white" stroke-width="0.095"/>
</g>
</g>
</g>
</g>
<defs>
<linearGradient id="paint0_linear_2382_2346" x1="26.0258" y1="0" x2="26.0258" y2="52.0517" gradientUnits="userSpaceOnUse">
<stop stop-color="#CA84B3"/>
<stop offset="1" stop-color="#F08389"/>
</linearGradient>
<clipPath id="clip0_2382_2346">
<rect width="52.0517" height="52.0517" fill="white"/>
</clipPath>
<clipPath id="clip1_2382_2346">
<rect width="52.0517" height="52.0517" fill="white"/>
</clipPath>
<clipPath id="clip2_2382_2346">
<rect width="19" height="19" fill="white" transform="translate(16.1172 16.7026)"/>
</clipPath>
<clipPath id="clip3_2382_2346">
<rect width="19" height="19" fill="white" transform="translate(16.1172 16.7026)"/>
</clipPath>
</defs>
</svg>
