<svg width="53" height="53" viewBox="0 0 53 53" fill="none" xmlns="http://www.w3.org/2000/svg">
<g clip-path="url(#clip0_2382_2377)">
<g clip-path="url(#clip1_2382_2377)">
<path d="M39.0388 0H13.0129C5.82608 0 0 5.82608 0 13.0129V39.0388C0 46.2256 5.82608 52.0517 13.0129 52.0517H39.0388C46.2256 52.0517 52.0517 46.2256 52.0517 39.0388V13.0129C52.0517 5.82608 46.2256 0 39.0388 0Z" fill="url(#paint0_linear_2382_2377)"/>
<g clip-path="url(#clip2_2382_2377)">
<path d="M19.783 19.1088C19.058 19.1088 18.4609 19.7058 18.4609 20.4308V32.1436C18.4609 32.8687 19.058 33.4657 19.783 33.4657H24.7541C24.8662 33.465 24.9738 33.4202 25.0529 33.341C25.1321 33.2612 25.1763 33.1537 25.1757 33.0415C25.175 32.8093 24.987 32.6206 24.7541 32.62H19.783C19.5112 32.62 19.306 32.4141 19.306 32.143V20.4302C19.306 20.159 19.5105 19.9526 19.783 19.9526H28.4538C28.7256 19.9526 28.9307 20.1591 28.9307 20.4302V26.4337C28.9321 26.6652 29.1194 26.8533 29.3516 26.8539C29.4638 26.8546 29.5713 26.8104 29.6505 26.7319C29.7303 26.6527 29.7752 26.5458 29.7752 26.4337V20.4309C29.7752 19.7058 29.1788 19.1088 28.4537 19.1088L19.783 19.1088ZM22.6192 21.7272C22.5077 21.7292 22.4008 21.7747 22.3229 21.8552L21.1856 23.0143L20.8986 22.668C20.8267 22.5822 20.7238 22.5281 20.6123 22.5182C20.5001 22.5083 20.3893 22.5433 20.3036 22.6152C20.2171 22.6871 20.1637 22.7907 20.1538 22.9022C20.1439 23.0137 20.1789 23.1252 20.2508 23.2109L20.8366 23.9122L20.836 23.9115C20.9125 24.0039 21.0246 24.0593 21.144 24.0639C21.2634 24.0686 21.3796 24.023 21.4627 23.9373L22.9246 22.4436H22.9253C23.0869 22.2774 23.0843 22.0115 22.9187 21.8486C22.8388 21.7701 22.7313 21.7266 22.6192 21.7272ZM24.0184 22.5439C23.9063 22.5433 23.7987 22.5875 23.7196 22.666C23.6398 22.7452 23.5949 22.8521 23.5949 22.9642C23.5942 23.077 23.6385 23.1852 23.7183 23.2644C23.7981 23.3442 23.9063 23.3884 24.0184 23.3884H27.6627C27.7749 23.3877 27.8818 23.3429 27.9609 23.263C28.0394 23.1839 28.0836 23.0763 28.083 22.9642C28.0823 22.7326 27.8943 22.5446 27.6627 22.5439H24.0184ZM22.6198 25.1202C22.5083 25.1208 22.4015 25.1664 22.323 25.2462L21.1856 26.4053L20.8986 26.059C20.8267 25.9732 20.7238 25.9191 20.6123 25.9092C20.5002 25.8993 20.3893 25.9343 20.3036 26.0062C20.2171 26.0781 20.1637 26.1817 20.1538 26.2932C20.1439 26.4046 20.1789 26.5162 20.2508 26.6019L20.8366 27.3038H20.836C20.9125 27.3955 21.0247 27.451 21.144 27.4556C21.2635 27.4602 21.3796 27.414 21.4627 27.3283L22.9246 25.8346H22.9253C23.0869 25.6684 23.0843 25.4025 22.9187 25.2396C22.8389 25.1617 22.7313 25.1189 22.6198 25.1202ZM24.0184 25.9349C23.9063 25.9343 23.7987 25.9785 23.7189 26.0576C23.6398 26.1368 23.5949 26.2437 23.5949 26.3558C23.5942 26.4687 23.6385 26.5768 23.7183 26.656C23.7981 26.7358 23.9063 26.7807 24.0184 26.78H27.6627C27.7749 26.7794 27.8818 26.7345 27.9609 26.6553C28.0394 26.5755 28.0836 26.468 28.083 26.3558C28.083 26.1236 27.8949 25.9356 27.6627 25.9349H24.0184ZM30.7674 27.2095C30.4342 27.2194 30.1024 27.3533 29.8504 27.6054L29.479 27.9794L28.432 29.0238C28.4274 29.0284 28.4181 29.0383 28.401 29.0574L26.2041 31.255V31.2557C26.1408 31.3183 26.0992 31.4001 26.0853 31.4885L25.8544 32.9597C25.8333 33.0936 25.8769 33.2289 25.9725 33.3245C26.0682 33.4202 26.2041 33.4644 26.3374 33.4433L27.8085 33.2157C27.8969 33.2018 27.9794 33.1609 28.0427 33.0976L30.2587 30.8809L31.3215 29.8188L31.6923 29.4473C32.2049 28.9347 32.228 28.0916 31.7174 27.5803C31.7147 27.5776 31.7075 27.5704 31.6949 27.5578V27.5585H31.693H31.6916C31.435 27.3144 31.1006 27.2003 30.7674 27.2095ZM30.7879 28.05C30.906 28.0454 31.0207 28.0863 31.1098 28.1694H31.1131C31.1131 28.1694 31.1118 28.1721 31.119 28.1793C31.2972 28.3574 31.2985 28.6444 31.094 28.8489L30.8413 29.1049L30.1928 28.4584L30.4494 28.2044C30.5497 28.1041 30.6704 28.0546 30.7885 28.05H30.7879ZM22.6192 28.5092C22.5077 28.5112 22.4008 28.5567 22.323 28.6372L21.1856 29.7963L20.8987 29.4506V29.4513C20.8274 29.3648 20.7238 29.3107 20.6123 29.3008C20.5008 29.291 20.3894 29.3253 20.3036 29.3972C20.2172 29.4691 20.1637 29.5727 20.1538 29.6841C20.1439 29.7956 20.1789 29.9071 20.2508 29.9929L20.8366 30.6948H20.836C20.9125 30.7865 21.0247 30.842 21.1441 30.8466C21.2635 30.8512 21.3796 30.805 21.4627 30.7192L22.9247 29.227H22.9253C23.087 29.06 23.0843 28.7942 22.9187 28.6312C22.8389 28.5527 22.7314 28.5085 22.6192 28.5092ZM29.597 29.0541L30.2442 29.7013L27.5433 32.4022L26.78 32.5209L26.8988 31.7543L29.0152 29.6373C29.0191 29.6333 29.0237 29.6294 29.0277 29.6248V29.6221H29.031L29.597 29.0541ZM24.0185 29.3259C23.9063 29.3253 23.7988 29.3695 23.7189 29.4486C23.6398 29.5278 23.5949 29.6347 23.5949 29.7468C23.5943 29.8597 23.6385 29.9678 23.7183 30.047C23.7981 30.1268 23.9063 30.1717 24.0185 30.171H26.0569C26.1691 30.1704 26.276 30.1255 26.3551 30.0463C26.4343 29.9665 26.4778 29.859 26.4778 29.7468C26.4772 29.5146 26.2892 29.3266 26.0569 29.3259H24.0185Z" fill="white"/>
</g>
</g>
</g>
<defs>
<linearGradient id="paint0_linear_2382_2377" x1="26.0258" y1="0" x2="26.0258" y2="52.0517" gradientUnits="userSpaceOnUse">
<stop stop-color="#C584B8"/>
<stop offset="1" stop-color="#F78381"/>
</linearGradient>
<clipPath id="clip0_2382_2377">
<rect width="52.0517" height="52.0517" fill="white"/>
</clipPath>
<clipPath id="clip1_2382_2377">
<rect width="52.0517" height="52.0517" fill="white"/>
</clipPath>
<clipPath id="clip2_2382_2377">
<rect width="19" height="19" fill="white" transform="translate(15.7754 16.7871)"/>
</clipPath>
</defs>
</svg>
