<svg width="53" height="53" viewBox="0 0 53 53" fill="none" xmlns="http://www.w3.org/2000/svg">
<g clip-path="url(#clip0_2382_2359)">
<g clip-path="url(#clip1_2382_2359)">
<path d="M39.0388 0H13.0129C5.82608 0 0 5.82608 0 13.0129V39.0388C0 46.2256 5.82608 52.0517 13.0129 52.0517H39.0388C46.2256 52.0517 52.0517 46.2256 52.0517 39.0388V13.0129C52.0517 5.82608 46.2256 0 39.0388 0Z" fill="url(#paint0_linear_2382_2359)"/>
<g clip-path="url(#clip2_2382_2359)">
<path d="M23.0665 19.9088C23.0665 18.8421 22.1986 17.9741 21.1319 17.9741C20.0652 17.9741 19.1973 18.8421 19.1973 19.9088C19.1973 20.9754 20.0652 21.8434 21.1319 21.8434C22.1986 21.8434 23.0665 20.9755 23.0665 19.9088ZM20.3056 19.9088C20.3056 19.4529 20.676 19.0825 21.1319 19.0825C21.5878 19.0825 21.9582 19.4529 21.9582 19.9088C21.9582 20.3639 21.5878 20.7351 21.1319 20.7351C20.676 20.7351 20.3056 20.3647 20.3056 19.9088Z" fill="white" stroke="white" stroke-width="0.095"/>
<path d="M17.3047 26.064C17.3047 26.3702 17.5524 26.6186 17.8592 26.6186H24.4053C24.7114 26.6186 24.9598 26.3702 24.9598 26.064C24.9598 23.9745 23.2597 22.2737 21.1702 22.2737H21.0956C19.0054 22.2737 17.3047 23.9745 17.3047 26.064ZM21.095 23.382H21.1696C22.4583 23.382 23.5374 24.296 23.7938 25.5095L18.4707 25.5102C18.7264 24.296 19.8063 23.382 21.095 23.382Z" fill="white" stroke="white" stroke-width="0.095"/>
<path d="M30.1026 25.9554C29.036 25.9554 28.168 26.8234 28.168 27.8901C28.168 28.9568 29.0359 29.8247 30.1026 29.8247C31.1693 29.8247 32.0372 28.9568 32.0372 27.8901C32.0372 26.8234 31.1693 25.9554 30.1026 25.9554ZM30.1026 28.7164C29.6467 28.7164 29.2763 28.346 29.2763 27.8901C29.2763 27.4342 29.6467 27.0638 30.1026 27.0638C30.5585 27.0638 30.9289 27.4342 30.9289 27.8901C30.9289 28.3453 30.5585 28.7164 30.1026 28.7164Z" fill="white"/>
<path d="M30.1395 30.2545H30.065C27.9755 30.2545 26.2754 31.9546 26.2754 34.0449C26.2754 34.351 26.5231 34.5994 26.8292 34.5994H33.3752C33.6821 34.5994 33.9298 34.351 33.9298 34.0449C33.9298 31.9554 32.2297 30.2545 30.1401 30.2545H30.1395ZM27.4407 33.4911C27.6964 32.2776 28.7762 31.3636 30.0649 31.3636H30.1394C31.4282 31.3636 32.5072 32.2776 32.7637 33.4911H27.4407Z" fill="white"/>
<path d="M28.9418 19.3551H25.617C25.3109 19.3551 25.0625 19.6035 25.0625 19.9096C25.0625 20.2157 25.3102 20.4641 25.617 20.4641H28.9418C29.8587 20.4641 30.6047 21.21 30.6047 22.1269V24.4472C30.6047 24.7534 30.8523 25.0018 31.1592 25.0018C31.4653 25.0018 31.7137 24.7534 31.7137 24.4472V22.1269C31.713 20.5978 30.4694 19.3551 28.9418 19.3551Z" fill="white"/>
<path d="M22.2923 32.1106C21.3755 32.1106 20.6295 31.3647 20.6295 30.4478V28.1275C20.6295 27.8214 20.3819 27.573 20.075 27.573C19.7689 27.573 19.5205 27.8214 19.5205 28.1275V30.4478C19.5205 31.9755 20.7633 33.2188 22.2916 33.2188H24.8296C25.1357 33.2188 25.3841 32.9704 25.3841 32.6643C25.3841 32.3582 25.1364 32.1098 24.8296 32.1098L22.2923 32.1106Z" fill="white"/>
</g>
</g>
</g>
<defs>
<linearGradient id="paint0_linear_2382_2359" x1="26.0258" y1="0" x2="26.0258" y2="52.0517" gradientUnits="userSpaceOnUse">
<stop stop-color="#C784B6"/>
<stop offset="1" stop-color="#F48385"/>
</linearGradient>
<clipPath id="clip0_2382_2359">
<rect width="52.0517" height="52.0517" fill="white"/>
</clipPath>
<clipPath id="clip1_2382_2359">
<rect width="52.0517" height="52.0517" fill="white"/>
</clipPath>
<clipPath id="clip2_2382_2359">
<rect width="19" height="19" fill="white" transform="translate(16.1172 16.7871)"/>
</clipPath>
</defs>
</svg>
