<svg width="53" height="53" viewBox="0 0 53 53" fill="none" xmlns="http://www.w3.org/2000/svg">
<g clip-path="url(#clip0_2382_2370)">
<g clip-path="url(#clip1_2382_2370)">
<path d="M39.0388 0H13.0129C5.82608 0 0 5.82608 0 13.0129V39.0388C0 46.2256 5.82608 52.0517 13.0129 52.0517H39.0388C46.2256 52.0517 52.0517 46.2256 52.0517 39.0388V13.0129C52.0517 5.82608 46.2256 0 39.0388 0Z" fill="url(#paint0_linear_2382_2370)"/>
<g clip-path="url(#clip2_2382_2370)">
<g clip-path="url(#clip3_2382_2370)">
<path fill-rule="evenodd" clip-rule="evenodd" d="M21.2537 23.7921L19.8525 22.3908L18.8535 22.6803C18.8535 22.6959 18.855 22.7115 18.855 22.7263C18.8542 23.1738 18.5217 23.5516 18.0772 23.608C17.6333 23.6652 17.2162 23.3831 17.1034 22.9497C16.9899 22.517 17.2162 22.0672 17.6318 21.8995C18.0467 21.7318 18.5217 21.8988 18.7407 22.2892L19.8384 21.9715H19.8391C19.914 21.9426 19.9994 21.9604 20.0565 22.0175L21.2537 23.2147V23.7928L21.2537 23.7921ZM22.629 21.8387H23.2072L21.8059 20.4374L22.0954 19.4385C22.111 19.4385 22.1265 19.4399 22.1414 19.4399C22.5889 19.4392 22.9667 19.1067 23.0231 18.6621C23.0803 18.2183 22.7982 17.8012 22.3648 17.6884C21.9321 17.5748 21.4824 17.8012 21.3146 18.2168C21.1469 18.6317 21.3139 19.1067 21.7043 19.3256L21.3866 20.4233V20.424C21.3577 20.499 21.3755 20.5844 21.4326 20.6415L22.6298 21.8387L22.629 21.8387ZM21.2537 22.1274V22.0428C21.2537 21.9886 21.2753 21.9367 21.3138 21.8988C21.3517 21.8602 21.4037 21.8387 21.4578 21.8387H21.5424L20.1635 20.4597C20.251 20.3187 20.2978 20.1561 20.2978 19.9899C20.2978 19.7524 20.2043 19.5253 20.0358 19.3576C19.8688 19.1906 19.6417 19.0963 19.405 19.097V19.0956C19.1675 19.0956 18.9403 19.1898 18.7726 19.3576C18.4238 19.7064 18.4238 20.2727 18.7726 20.6215C19.0665 20.9147 19.523 20.9674 19.8755 20.7491L21.2545 22.1281L21.2537 22.1274ZM28.0284 21.8387L29.4296 20.4374L29.1402 19.4385C29.1246 19.4385 29.109 19.4399 29.0942 19.4399C28.6466 19.4392 28.2688 19.1067 28.2125 18.6621C28.1553 18.2183 28.4373 17.8012 28.8708 17.6884C29.3034 17.5748 29.7532 17.8012 29.9209 18.2168C30.0887 18.6317 29.9217 19.1067 29.5313 19.3256L29.849 20.4233V20.424C29.8779 20.499 29.8601 20.5844 29.8029 20.6415L28.6058 21.8387L28.0284 21.8387ZM29.9818 23.214V23.7921L31.383 22.3909L32.382 22.6803C32.382 22.6959 32.3805 22.7115 32.3805 22.7264C32.3812 23.1739 32.7137 23.5517 33.1583 23.6081C33.6022 23.6652 34.0193 23.3832 34.1321 22.9498C34.2456 22.5171 34.0193 22.0673 33.6037 21.8996C33.1888 21.7318 32.7138 21.8988 32.4948 22.2892L31.3971 21.9716H31.3964C31.3215 21.9426 31.2361 21.9604 31.179 22.0176L29.9818 23.2147L29.9818 23.214ZM29.6931 21.8387H29.7777C29.8319 21.8387 29.8838 21.8602 29.9217 21.8988C29.9602 21.9367 29.9818 21.9886 29.9818 22.0428V22.1274L31.3608 20.7484C31.5025 20.836 31.6651 20.882 31.8313 20.8813C32.0688 20.882 32.2959 20.7878 32.4636 20.62C32.6306 20.453 32.7242 20.2259 32.7234 19.9899H32.7249C32.7249 19.7524 32.6306 19.5253 32.4629 19.3576C32.1141 19.0087 31.5478 19.0087 31.199 19.3576C30.9058 19.6515 30.8531 20.1079 31.0713 20.4605L29.6923 21.8395L29.6931 21.8387ZM29.9818 28.6133L31.383 30.0146L32.382 29.7251C32.382 29.7096 32.3805 29.694 32.3805 29.6791C32.3812 29.2316 32.7137 28.8538 33.1583 28.7974C33.6022 28.7403 34.0193 29.0223 34.1321 29.4557C34.2456 29.8884 34.0193 30.3382 33.6037 30.5059C33.1888 30.6736 32.7138 30.5067 32.4948 30.1163L31.3971 30.4339H31.3964C31.3215 30.4629 31.2361 30.4451 31.179 30.3879L29.9818 29.1907L29.9818 28.6133ZM28.6065 30.5667H28.0283L29.4296 31.968L29.1401 32.9669C29.1245 32.9669 29.109 32.9655 29.0941 32.9655C28.6466 32.9662 28.2688 33.2987 28.2124 33.7433C28.1552 34.1871 28.4373 34.6042 28.8707 34.717C29.3034 34.8306 29.7532 34.6042 29.9209 34.1886C30.0886 33.7737 29.9216 33.2987 29.5312 33.0798L29.8489 31.9821V31.9814C29.8778 31.9064 29.86 31.8211 29.8029 31.7639L28.6057 30.5667L28.6065 30.5667ZM29.9818 30.278V30.3626C29.9818 30.4755 29.8905 30.5667 29.7777 30.5667H29.6931L31.072 31.9457C30.9845 32.0875 30.9384 32.25 30.9392 32.4163C30.9384 32.6538 31.0327 32.8809 31.2004 33.0486C31.3682 33.2156 31.5953 33.3091 31.8313 33.3084V33.3098C32.0688 33.3098 32.2959 33.2156 32.4636 33.0479C32.6314 32.8801 32.7256 32.653 32.7256 32.4155C32.7256 32.1788 32.6314 31.9517 32.4636 31.7839C32.1697 31.4908 31.7133 31.4381 31.3607 31.6563L29.9818 30.2773V30.278ZM23.2071 30.5667L21.8059 31.968L22.0953 32.9669C22.1109 32.9669 22.1265 32.9655 22.1413 32.9655C22.5889 32.9662 22.9667 33.2987 23.0231 33.7433C23.0802 34.1871 22.7982 34.6042 22.3647 34.717C21.9321 34.8306 21.4823 34.6042 21.3146 34.1886C21.1468 33.7737 21.3138 33.2987 21.7042 33.0798L21.3865 31.9821V31.9814C21.3576 31.9064 21.3754 31.8211 21.4325 31.7639L22.6297 30.5667L23.2071 30.5667ZM21.2537 29.1915V28.6133L19.8525 30.0145L18.8535 29.7251C18.8535 29.7095 18.855 29.6939 18.855 29.6791C18.8542 29.2315 18.5217 28.8538 18.0772 28.7973C17.6333 28.7402 17.2162 29.0222 17.1034 29.4557C16.9899 29.8884 17.2162 30.3381 17.6318 30.5059C18.0467 30.6736 18.5217 30.5066 18.7407 30.1162L19.8384 30.4339H19.8391C19.914 30.4628 19.9994 30.445 20.0565 30.3878L21.2537 29.1907L21.2537 29.1915ZM21.5424 30.5667H21.4578C21.345 30.5667 21.2537 30.4754 21.2537 30.3626V30.278L19.8748 31.657C19.733 31.5694 19.5705 31.5234 19.4042 31.5242C19.1667 31.5234 18.9396 31.6177 18.7719 31.7854C18.6049 31.9531 18.5113 32.1802 18.5121 32.4163H18.5106C18.5106 32.6538 18.6049 32.8809 18.7726 33.0486C19.1214 33.3974 19.6877 33.3974 20.0365 33.0486C20.3297 32.7547 20.3824 32.2982 20.1642 31.9457L21.5432 30.5667H21.5424ZM24.7472 25.332V27.0732H26.4884V25.332H24.7472ZM22.9867 23.5716H28.2487V28.8336H22.9867V23.5716ZM22.5778 29.0379V23.3675C22.5778 23.3133 22.5993 23.2606 22.6379 23.2228C22.6757 23.1842 22.7284 23.1627 22.7826 23.1627H28.453C28.5071 23.1627 28.5599 23.1842 28.5977 23.2228C28.6363 23.2606 28.6578 23.3133 28.6578 23.3675V29.0379C28.6578 29.0921 28.6363 29.1447 28.5977 29.1826C28.5599 29.2212 28.5071 29.2427 28.453 29.2427H22.7826C22.7284 29.2427 22.6757 29.2212 22.6379 29.1826C22.5993 29.1447 22.5778 29.0921 22.5778 29.0379ZM21.6627 22.2476H29.5729V30.1579H21.6627V22.2476ZM24.3382 27.2775V25.1275C24.3382 25.0733 24.3598 25.0213 24.3984 24.9835C24.4362 24.9449 24.4889 24.9234 24.5431 24.9234H26.6924C26.7465 24.9234 26.7992 24.9449 26.8371 24.9835C26.8757 25.0213 26.8972 25.0733 26.8972 25.1275V27.2775C26.8972 27.3911 26.8059 27.4824 26.6924 27.4824H24.5431C24.4882 27.4824 24.4362 27.4608 24.3984 27.4222C24.3598 27.3844 24.3382 27.3324 24.3382 27.2775Z" fill="white"/>
</g>
</g>
</g>
</g>
<defs>
<linearGradient id="paint0_linear_2382_2370" x1="26.0258" y1="0" x2="26.0258" y2="52.0517" gradientUnits="userSpaceOnUse">
<stop stop-color="#C584B8"/>
<stop offset="1" stop-color="#F78381"/>
</linearGradient>
<clipPath id="clip0_2382_2370">
<rect width="52.0517" height="52.0517" fill="white"/>
</clipPath>
<clipPath id="clip1_2382_2370">
<rect width="52.0517" height="52.0517" fill="white"/>
</clipPath>
<clipPath id="clip2_2382_2370">
<rect width="19" height="19" fill="white" transform="translate(16.1172 16.7028)"/>
</clipPath>
<clipPath id="clip3_2382_2370">
<rect width="19" height="19" fill="white" transform="translate(16.1172 16.7028)"/>
</clipPath>
</defs>
</svg>
