<svg width="26" height="26" viewBox="0 0 26 26" fill="none" xmlns="http://www.w3.org/2000/svg">
<path d="M12.7135 1.71553C14.7504 1.71553 16.6479 2.18723 18.3954 3.11992C20.1025 4.01725 21.5297 5.36718 22.5206 7.02177C23.5114 8.67637 24.0278 10.5718 24.0129 12.5003C24.0129 14.9339 23.3161 17.1316 21.9117 19.0613C20.5748 20.9509 18.6596 22.3545 16.455 23.06C16.2084 23.1136 16.0262 23.0922 15.8868 22.985C15.8185 22.9317 15.7636 22.8633 15.7264 22.7852C15.6892 22.707 15.6707 22.6213 15.6724 22.5347V18.8254C15.6724 17.8713 15.4365 17.2174 14.9219 16.7885C16.0262 16.6813 16.8516 16.5205 17.3877 16.3383C18.2346 16.0488 18.8778 15.5878 19.3281 15.0089C19.8426 14.2478 20.0785 13.1865 20.0785 11.8571C20.0785 11.2996 19.9713 10.7958 19.7569 10.3991C19.6068 10.1097 19.3281 9.74518 18.8992 9.29492C19.0064 8.99474 19.0922 8.63025 19.1137 8.22287C19.1364 7.55763 19.0271 6.89449 18.792 6.27174C18.5562 6.21814 18.1274 6.29318 17.5806 6.50759C17.2376 6.6684 16.8088 6.85064 16.3156 7.11866L15.726 7.51531C13.8786 6.9956 11.9237 6.9956 10.0763 7.51531L9.48666 7.11866C9.07444 6.88172 8.64431 6.6774 8.2002 6.50759C7.66418 6.29318 7.2568 6.2503 6.98879 6.32534C6.7254 6.94392 6.61508 7.61689 6.66717 8.28719C6.66717 8.71601 6.72077 9.0269 6.84942 9.29492C6.50636 9.74518 6.23835 10.1418 6.06682 10.5063C5.90602 10.8815 5.83097 11.3318 5.83097 11.9107C5.83097 13.2401 6.06682 14.2692 6.55997 15.0197C6.98879 15.62 7.59985 16.0917 8.43605 16.3919C8.97208 16.5741 9.78683 16.7135 10.8589 16.8421C10.4837 17.1852 10.2371 17.6891 10.1299 18.343C9.62603 18.5896 9.1436 18.6646 8.65046 18.611C8.2735 18.5886 7.90896 18.4679 7.59303 18.261C7.27709 18.0542 7.02074 17.7683 6.84942 17.4318C6.66717 17.1101 6.4206 16.8421 6.12043 16.6277L5.45576 16.3061L5.13414 16.2525C4.81253 16.2525 4.61956 16.3061 4.61956 16.4133C4.5874 16.5205 4.67316 16.6277 4.83397 16.7564L5.04838 16.9493C5.26279 17.0565 5.4772 17.271 5.67017 17.5282C5.85241 17.7427 5.99178 17.9785 6.12043 18.2465L6.3134 18.5896C6.4742 19.0398 6.74222 19.3829 7.17103 19.5973C7.56707 19.8188 8.00549 19.954 8.45749 19.994C8.81127 20.0154 9.19721 20.0154 9.59386 19.9404L10.0763 19.8868L10.1299 22.5883C10.1299 22.7706 10.0548 22.9099 9.91548 23.0386C9.78683 23.1458 9.59386 23.1994 9.35801 23.1136C7.12831 22.4119 5.18452 21.0095 3.81552 19.1149C2.42953 17.1977 1.69323 14.8874 1.71431 12.5218C1.71431 10.5063 2.19673 8.68385 3.14013 7.04361C4.09003 5.41559 5.45516 4.06896 7.09599 3.14136C8.81251 2.18531 10.7488 1.69384 12.7135 1.71553ZM5.5844 16.6277C5.638 16.5741 5.72377 16.5527 5.79881 16.6063C5.88458 16.6599 5.90602 16.7135 5.88458 16.7885C5.85241 16.8636 5.77737 16.8636 5.67017 16.81C5.56296 16.7564 5.56296 16.6813 5.5844 16.6277ZM6.06682 17.0029C6.12043 16.9493 6.20619 16.9493 6.28123 17.0565C6.367 17.1316 6.38844 17.2066 6.34556 17.271C6.29195 17.3138 6.20619 17.3138 6.13115 17.2066C6.02394 17.1316 6.02394 17.0565 6.06682 16.9922V17.0029ZM6.52781 17.5604C6.58141 17.5282 6.63501 17.5282 6.68861 17.5282C6.73621 17.5497 6.77433 17.5879 6.79582 17.6355C6.88158 17.7427 6.88158 17.8499 6.79582 17.9035C6.78061 17.9156 6.7617 17.9223 6.74222 17.9223C6.72273 17.9223 6.70382 17.9156 6.68861 17.9035C6.66717 17.8713 6.58141 17.8499 6.52781 17.8177C6.4742 17.6891 6.4742 17.5818 6.52781 17.5604ZM7.06383 18.1929C7.09599 18.1608 7.14959 18.1608 7.2032 18.1608L7.364 18.2465C7.41761 18.3001 7.43905 18.3537 7.43905 18.4073C7.47121 18.4609 7.43905 18.5145 7.41761 18.536C7.33184 18.611 7.22464 18.611 7.09599 18.4824C7.06913 18.4602 7.0475 18.4324 7.03268 18.4009C7.01785 18.3694 7.01018 18.3349 7.01023 18.3001C7.01023 18.2144 7.04239 18.2144 7.06383 18.1929ZM7.79282 18.7504C7.82498 18.6432 7.90003 18.5896 8.06083 18.6432C8.22164 18.6968 8.27524 18.7504 8.27524 18.8254C8.2538 18.9112 8.22164 18.9648 8.16804 18.9862C8.11444 19.0077 8.06083 19.0077 7.98579 18.9862C7.90003 18.9648 7.87859 18.9112 7.82498 18.879C7.77138 18.8254 7.77138 18.804 7.79282 18.7504ZM9.16505 18.9326C9.16505 18.9112 9.1436 18.879 9.07928 18.8576C9.01372 18.8213 8.9398 18.8028 8.86487 18.804C8.70406 18.804 8.65046 18.8576 8.65046 18.9862C8.65046 19.0934 8.73623 19.147 8.89703 19.147C9.07928 19.1149 9.16505 19.0613 9.16505 18.9326ZM9.75467 18.6646C9.91548 18.6646 10.0012 18.7182 10.0012 18.804C10.0227 18.879 9.94764 18.9648 9.78683 19.0184C9.73323 19.0184 9.67963 19.0184 9.62603 18.9862C9.57242 18.9648 9.54026 18.9112 9.54026 18.8254C9.54026 18.7504 9.62603 18.6968 9.75467 18.6646Z" fill="white"/>
</svg>
