<svg width="26" height="26" viewBox="0 0 26 26" fill="none" xmlns="http://www.w3.org/2000/svg">
<path d="M21.4187 5.54221C19.3706 3.89348 16.1303 3.61406 15.9914 3.60429C15.8858 3.59544 15.7801 3.61973 15.689 3.67378C15.5978 3.72783 15.5258 3.80894 15.483 3.90583C15.4217 4.04509 15.3692 4.18808 15.326 4.33397C16.6809 4.56296 18.3451 5.02351 19.8507 5.95799C19.9082 5.99364 19.958 6.04025 19.9975 6.09516C20.0369 6.15008 20.0651 6.21222 20.0805 6.27804C20.0959 6.34386 20.0982 6.41207 20.0873 6.47878C20.0763 6.54549 20.0524 6.60939 20.0167 6.66683C19.9811 6.72427 19.9344 6.77413 19.8795 6.81355C19.8246 6.85298 19.7625 6.8812 19.6967 6.89661C19.6308 6.91202 19.5626 6.91432 19.4959 6.90336C19.4292 6.89241 19.3653 6.86843 19.3079 6.83278C16.7195 5.22574 13.4869 5.14598 12.8637 5.14598C12.2411 5.14598 9.00642 5.22625 6.41961 6.83227C6.36217 6.86791 6.29827 6.8919 6.23156 6.90285C6.16486 6.9138 6.09664 6.91151 6.03082 6.8961C5.89789 6.86497 5.78276 6.78232 5.71077 6.66632C5.63878 6.55031 5.61582 6.41046 5.64694 6.27753C5.67806 6.14459 5.76072 6.02947 5.87672 5.95748C7.3824 5.02557 9.04656 4.56296 10.4015 4.33602C10.3232 4.08079 10.2522 3.91973 10.2471 3.90583C10.2041 3.8085 10.1317 3.72708 10.04 3.673C9.94838 3.61891 9.8421 3.59489 9.7361 3.60429C9.59716 3.61458 6.35683 3.89348 4.28049 5.56433C3.19729 6.56726 1.02832 12.4289 1.02832 17.496C1.02832 17.5865 1.05251 17.673 1.09676 17.7512C2.59214 20.3807 6.67484 21.0677 7.60521 21.0981H7.62116C7.70236 21.0983 7.78245 21.0793 7.85489 21.0426C7.92733 21.0059 7.99007 20.9526 8.03797 20.8871L8.97812 19.5924C6.43968 18.9373 5.14293 17.8238 5.06883 17.7574C4.96647 17.667 4.9042 17.5397 4.8957 17.4035C4.88721 17.2672 4.9332 17.1332 5.02355 17.0308C5.11389 16.9284 5.2412 16.8662 5.37746 16.8577C5.51373 16.8492 5.64778 16.8952 5.75014 16.9855C5.77998 17.0138 8.16816 19.0397 12.8637 19.0397C17.567 19.0397 19.9552 17.0056 19.9794 16.9855C20.0821 16.8958 20.2161 16.8505 20.3522 16.8596C20.4882 16.8687 20.6151 16.9313 20.705 17.0339C20.7494 17.0844 20.7835 17.1432 20.8053 17.2069C20.827 17.2707 20.836 17.338 20.8317 17.4052C20.8274 17.4724 20.8099 17.5381 20.7802 17.5985C20.7505 17.6589 20.7092 17.7129 20.6586 17.7574C20.5845 17.8238 19.2878 18.9373 16.7494 19.5924L17.69 20.8871C17.7379 20.9526 17.8005 21.0058 17.8729 21.0425C17.9452 21.0791 18.0252 21.0982 18.1063 21.0981H18.1217C19.0531 21.0677 23.1353 20.3802 24.6312 17.7512C24.675 17.673 24.6992 17.5865 24.6992 17.496C24.6992 12.4284 22.5302 6.56726 21.4187 5.54221ZM9.51895 15.4376C8.52374 15.4376 7.7179 14.5165 7.7179 13.3793C7.7179 12.2421 8.52374 11.321 9.51895 11.321C10.5141 11.321 11.32 12.2421 11.32 13.3793C11.32 14.5165 10.5141 15.4376 9.51895 15.4376ZM16.2085 15.4376C15.2133 15.4376 14.4075 14.5165 14.4075 13.3793C14.4075 12.2421 15.2133 11.321 16.2085 11.321C17.2037 11.321 18.0096 12.2421 18.0096 13.3793C18.0096 14.5165 17.2037 15.4376 16.2085 15.4376Z" fill="white"/>
</svg>
