<svg width="26" height="26" viewBox="0 0 26 26" fill="none" xmlns="http://www.w3.org/2000/svg">
<path d="M24.3665 7.20416C24.2301 6.69516 23.9621 6.23103 23.5895 5.85843C23.2169 5.48582 22.7528 5.21787 22.2438 5.0815C20.3784 4.57764 12.8634 4.57764 12.8634 4.57764C12.8634 4.57764 5.35905 4.57764 3.48296 5.0815C2.97397 5.21787 2.50984 5.48582 2.13724 5.85843C1.76463 6.23103 1.49668 6.69516 1.36031 7.20416C0.856445 9.08024 0.856445 12.9932 0.856445 12.9932C0.856445 12.9932 0.856445 16.9062 1.36031 18.7823C1.49668 19.2913 1.76463 19.7554 2.13724 20.128C2.50984 20.5006 2.97397 20.7686 3.48296 20.9049C5.35905 21.4088 12.8634 21.4088 12.8634 21.4088C12.8634 21.4088 20.3677 21.4088 22.2438 20.9049C22.7528 20.7686 23.2169 20.5006 23.5895 20.128C23.9621 19.7554 24.2301 19.2913 24.3665 18.7823C24.8703 16.9062 24.8703 12.9932 24.8703 12.9932C24.8703 12.9932 24.8703 9.08024 24.3665 7.20416ZM10.4834 16.5846V9.40186L16.7013 12.9718L10.4834 16.5846Z" fill="white"/>
</svg>
