<svg width="18" height="18" viewBox="0 0 18 18" fill="none" xmlns="http://www.w3.org/2000/svg">
<path d="M14.5833 6.5625H8.02083C7.21542 6.5625 6.5625 7.21542 6.5625 8.02083V14.5833C6.5625 15.3887 7.21542 16.0417 8.02083 16.0417H14.5833C15.3887 16.0417 16.0417 15.3887 16.0417 14.5833V8.02083C16.0417 7.21542 15.3887 6.5625 14.5833 6.5625Z" stroke="#F2F6FA" stroke-width="1.45833" stroke-linecap="round" stroke-linejoin="round"/>
<path d="M3.64551 10.9372H2.91634C2.52957 10.9372 2.15863 10.7835 1.88514 10.51C1.61165 10.2365 1.45801 9.86561 1.45801 9.47884V2.91634C1.45801 2.52957 1.61165 2.15863 1.88514 1.88514C2.15863 1.61165 2.52957 1.45801 2.91634 1.45801H9.47884C9.86561 1.45801 10.2365 1.61165 10.51 1.88514C10.7835 2.15863 10.9372 2.52957 10.9372 2.91634V3.64551" stroke="#F2F6FA" stroke-width="1.45833" stroke-linecap="round" stroke-linejoin="round"/>
</svg>
