<svg width="96" height="27" viewBox="0 0 96 27" fill="none" xmlns="http://www.w3.org/2000/svg">
<path d="M94.1446 9.35373C94.1446 14.5531 90.62 19.1602 84.897 19.1602C80.1509 19.1602 76.8357 16.0183 76.8357 10.7847C76.8357 4.95606 80.9535 1.15248 86.1185 1.15248C90.9342 1.15248 94.1446 4.39814 94.1446 9.35373ZM89.6079 10.5058C89.6079 6.14331 88.3864 3.17661 85.176 3.17661C82.2102 3.17661 81.3372 5.72439 81.3372 9.49273C81.3372 13.8209 82.4892 17.1361 85.6996 17.1361C88.3864 17.1361 89.6079 14.7625 89.6079 10.5058ZM65.2565 12.0748C64.2796 12.0748 63.3371 11.9701 62.4992 11.7949C62.1508 12.249 61.9413 12.7374 61.9413 13.1564C61.9413 13.9237 62.604 14.4474 64.1406 14.4474H66.8274C71.2936 14.4474 74.2955 15.7736 74.2955 19.0536C74.2955 22.6839 70.5958 26.5226 64.1749 26.5226C59.4983 26.5226 56.9857 24.3586 56.9857 21.8803C56.9857 19.8562 58.5567 18.6699 60.9292 17.7283C59.324 17.1694 58.7652 16.0878 58.7652 14.971C58.7652 13.54 59.9867 12.3528 61.4529 11.4807C59.324 10.6781 57.9626 9.14237 57.9626 6.90973C57.9626 3.66313 60.8245 1.15153 65.2222 1.15153C67.3853 1.15153 69.3742 1.77991 70.6662 2.89575C72.3057 2.05792 72.1667 -0.000488281 73.9109 -0.000488281C74.8877 -0.000488281 75.5504 0.557433 75.5504 1.39527C75.5504 3.00048 73.2473 3.62885 71.4679 3.76881C72.0258 4.53619 72.34 5.44448 72.34 6.49082C72.34 9.94593 69.06 12.0748 65.2565 12.0748ZM63.8255 18.111C63.1628 18.111 62.5687 18.0767 62.0451 17.972C60.9988 18.8451 60.6503 19.8914 60.6503 20.9387C60.6503 23.1018 62.1165 24.6032 65.2565 24.6032C68.3279 24.6032 70.491 23.1723 70.491 20.7644C70.491 19.0888 69.4095 18.1119 66.5132 18.1119L63.8255 18.111ZM67.9442 6.76978C67.9442 4.222 66.5827 2.89575 64.9423 2.89575C63.1276 2.89575 62.1508 4.43146 62.1508 6.59555C62.1508 8.82913 63.2323 10.3639 65.2212 10.3639C67.0711 10.3639 67.9442 8.89768 67.9442 6.76978ZM42.1542 15.3909C42.1542 16.3677 42.4331 16.8571 43.0615 17.1008C43.3757 17.2408 43.7594 17.2751 44.4925 17.3455V18.6365H35.6629V17.3455C36.1522 17.3103 36.7454 17.2751 37.0938 17.1008C37.7574 16.8914 38.0012 16.3677 38.0012 15.3909V4.7466C38.0012 3.66503 37.7917 3.31657 36.7444 3.31657C36.3255 3.31657 35.6629 3.35085 35.3144 3.38607V2.16455C36.4664 1.74563 38.839 1.15248 40.1995 1.15248C41.7352 1.15248 42.1542 1.85036 42.1542 3.31657V3.97922C43.9346 2.30355 45.9235 1.15248 48.2961 1.15248C51.437 1.15248 53.0774 2.86243 53.0774 7.05064V15.3909C53.0774 16.3677 53.3564 16.8571 53.9848 17.1008C54.2989 17.2408 54.6826 17.2751 55.4157 17.3455V18.6365H46.5861V17.3455C47.0745 17.3103 47.6677 17.2751 48.0171 17.1008C48.6797 16.8914 48.9244 16.3677 48.9244 15.3909V8.20266C48.9244 5.58443 48.2961 4.15345 45.5398 4.15345C44.3525 4.15345 43.4804 4.39814 42.1542 4.85133V15.3909ZM31.3176 7.43338V15.1814C31.3176 16.9256 32.0849 17.3798 33.5159 17.3798C33.6901 17.3798 33.8644 17.3798 34.1091 17.3446V18.2871C33.236 18.6708 32.2239 19.0545 30.7587 19.0545C27.9672 19.0545 27.1646 17.833 27.1646 16.0535V16.0183C26.0478 17.7635 24.0931 19.0202 21.9291 19.0202C19.487 19.0202 17.6371 17.4493 17.6371 14.8672C17.6371 12.249 19.5222 10.7838 23.0459 9.94593L27.1646 8.96909V8.23598C27.1646 5.44448 26.3267 4.36291 23.6038 4.36291C22.1042 4.36291 19.9402 4.6771 18.1607 5.09601V3.24612C20.4286 2.02459 23.36 1.25626 25.7679 1.25626C29.3982 1.25626 31.3166 3.07093 31.3166 7.43338M21.6501 13.6809C21.6501 15.1462 22.5232 15.984 24.2683 15.984C25.2452 15.984 26.3962 15.6699 27.1646 15.2862V10.5391L24.9653 11.097C22.7669 11.6549 21.6501 12.25 21.6501 13.6809ZM0.391028 6.805L1.29932 1.67518H14.1762L14.7703 2.65202L5.59226 16.8561H9.46438C11.5237 16.8561 13.4431 15.2509 13.9316 12.9469L15.0131 13.0868L14.2457 18.6356H0.740443L0.216797 17.7283L9.39488 3.45462H5.66271C3.14921 3.45462 2.31138 5.05983 1.57923 6.97923L0.391028 6.805Z" fill="white"/>
</svg>
