<svg width="118" height="118" viewBox="0 0 118 118" fill="none" xmlns="http://www.w3.org/2000/svg">
<circle cx="59" cy="59" r="59" fill="#6BDDB9"/>
<path d="M105.145 55.3537C105.145 60.5531 101.62 65.1602 95.897 65.1602C91.1509 65.1602 87.8357 62.0183 87.8357 56.7847C87.8357 50.9561 91.9535 47.1525 97.1185 47.1525C101.934 47.1525 105.145 50.3981 105.145 55.3537ZM100.608 56.5058C100.608 52.1433 99.3864 49.1766 96.176 49.1766C93.2102 49.1766 92.3372 51.7244 92.3372 55.4927C92.3372 59.8209 93.4892 63.1361 96.6996 63.1361C99.3864 63.1361 100.608 60.7625 100.608 56.5058ZM76.2565 58.0748C75.2796 58.0748 74.3371 57.9701 73.4992 57.7949C73.1508 58.249 72.9413 58.7374 72.9413 59.1564C72.9413 59.9237 73.604 60.4474 75.1406 60.4474H77.8274C82.2936 60.4474 85.2955 61.7736 85.2955 65.0536C85.2955 68.6839 81.5958 72.5226 75.1749 72.5226C70.4983 72.5226 67.9857 70.3586 67.9857 67.8803C67.9857 65.8562 69.5567 64.6699 71.9292 63.7283C70.324 63.1694 69.7652 62.0878 69.7652 60.971C69.7652 59.54 70.9867 58.3528 72.4529 57.4807C70.324 56.6781 68.9626 55.1424 68.9626 52.9097C68.9626 49.6631 71.8245 47.1515 76.2222 47.1515C78.3853 47.1515 80.3742 47.7799 81.6662 48.8957C83.3057 48.0579 83.1667 45.9995 84.9109 45.9995C85.8877 45.9995 86.5504 46.5574 86.5504 47.3953C86.5504 49.0005 84.2473 49.6289 82.4679 49.7688C83.0258 50.5362 83.34 51.4445 83.34 52.4908C83.34 55.9459 80.06 58.0748 76.2565 58.0748ZM74.8255 64.111C74.1628 64.111 73.5687 64.0767 73.0451 63.972C71.9988 64.8451 71.6503 65.8914 71.6503 66.9387C71.6503 69.1018 73.1165 70.6032 76.2565 70.6032C79.3279 70.6032 81.491 69.1723 81.491 66.7644C81.491 65.0888 80.4095 64.1119 77.5132 64.1119L74.8255 64.111ZM78.9442 52.7698C78.9442 50.222 77.5827 48.8957 75.9423 48.8957C74.1276 48.8957 73.1508 50.4315 73.1508 52.5955C73.1508 54.8291 74.2323 56.3639 76.2212 56.3639C78.0711 56.3639 78.9442 54.8977 78.9442 52.7698ZM53.1542 61.3909C53.1542 62.3677 53.4331 62.8571 54.0615 63.1008C54.3757 63.2408 54.7594 63.2751 55.4925 63.3455V64.6365H46.6629V63.3455C47.1522 63.3103 47.7454 63.2751 48.0938 63.1008C48.7574 62.8914 49.0012 62.3677 49.0012 61.3909V50.7466C49.0012 49.665 48.7917 49.3166 47.7444 49.3166C47.3255 49.3166 46.6629 49.3508 46.3144 49.3861V48.1645C47.4664 47.7456 49.839 47.1525 51.1995 47.1525C52.7352 47.1525 53.1542 47.8504 53.1542 49.3166V49.9792C54.9346 48.3036 56.9235 47.1525 59.2961 47.1525C62.437 47.1525 64.0774 48.8624 64.0774 53.0506V61.3909C64.0774 62.3677 64.3564 62.8571 64.9848 63.1008C65.2989 63.2408 65.6826 63.2751 66.4157 63.3455V64.6365H57.5861V63.3455C58.0745 63.3103 58.6677 63.2751 59.0171 63.1008C59.6797 62.8914 59.9244 62.3677 59.9244 61.3909V54.2027C59.9244 51.5844 59.2961 50.1535 56.5398 50.1535C55.3525 50.1535 54.4804 50.3981 53.1542 50.8513V61.3909ZM42.3176 53.4334V61.1814C42.3176 62.9256 43.0849 63.3798 44.5159 63.3798C44.6901 63.3798 44.8644 63.3798 45.1091 63.3446V64.2871C44.236 64.6708 43.2239 65.0545 41.7587 65.0545C38.9672 65.0545 38.1646 63.833 38.1646 62.0535V62.0183C37.0478 63.7635 35.0931 65.0202 32.9291 65.0202C30.487 65.0202 28.6371 63.4493 28.6371 60.8672C28.6371 58.249 30.5222 56.7838 34.0459 55.9459L38.1646 54.9691V54.236C38.1646 51.4445 37.3267 50.3629 34.6038 50.3629C33.1042 50.3629 30.9402 50.6771 29.1607 51.096V49.2461C31.4286 48.0246 34.36 47.2563 36.7679 47.2563C40.3982 47.2563 42.3166 49.0709 42.3166 53.4334M32.6501 59.6809C32.6501 61.1462 33.5232 61.984 35.2683 61.984C36.2452 61.984 37.3962 61.6699 38.1646 61.2862V56.5391L35.9653 57.097C33.7669 57.6549 32.6501 58.25 32.6501 59.6809ZM11.391 52.805L12.2993 47.6752H25.1762L25.7703 48.652L16.5923 62.8561H20.4644C22.5237 62.8561 24.4431 61.2509 24.9316 58.9469L26.0131 59.0868L25.2457 64.6356H11.7404L11.2168 63.7283L20.3949 49.4546H16.6627C14.1492 49.4546 13.3114 51.0598 12.5792 52.9792L11.391 52.805Z" fill="white"/>
</svg>
