<svg width="173" height="66" viewBox="0 0 173 66" fill="none" xmlns="http://www.w3.org/2000/svg">
<path d="M33.4705 21V1.46584H41.312C43.3399 1.46584 44.884 1.94024 45.9444 2.88905C47.0235 3.81924 47.563 5.0192 47.563 6.48891C47.563 7.71677 47.2281 8.70278 46.5584 9.44694C45.9072 10.1725 45.1073 10.6655 44.1585 10.926C45.2747 11.1492 46.1956 11.7073 46.9211 12.6003C47.6467 13.4747 48.0095 14.4979 48.0095 15.67C48.0095 17.2141 47.4514 18.4885 46.3351 19.4931C45.2189 20.4977 43.6375 21 41.5911 21H33.4705ZM37.0424 9.67019H40.7818C41.7864 9.67019 42.5585 9.43764 43.098 8.97254C43.6375 8.50744 43.9073 7.847 43.9073 6.99122C43.9073 6.17264 43.6375 5.53081 43.098 5.06571C42.5771 4.58201 41.7864 4.34016 40.726 4.34016H37.0424V9.67019ZM37.0424 18.0978H41.033C42.0934 18.0978 42.912 17.8559 43.4887 17.3722C44.084 16.8699 44.3817 16.1723 44.3817 15.2793C44.3817 14.3677 44.0747 13.6514 43.4608 13.1305C42.8469 12.6096 42.019 12.3492 40.9772 12.3492H37.0424V18.0978ZM57.5022 21.3349C56.1069 21.3349 54.8697 21.0372 53.7907 20.4419C52.7116 19.8466 51.8652 19.0094 51.2512 17.9303C50.6373 16.8513 50.3303 15.6049 50.3303 14.191C50.3303 12.7584 50.628 11.4841 51.2233 10.3678C51.8372 9.2516 52.6744 8.38652 53.7349 7.77258C54.8139 7.14005 56.079 6.82378 57.5301 6.82378C58.8881 6.82378 60.0881 7.12145 61.1299 7.71677C62.1717 8.3121 62.981 9.13067 63.5577 10.1725C64.1531 11.1957 64.4507 12.3399 64.4507 13.6049C64.4507 13.8096 64.4414 14.0235 64.4228 14.2468C64.4228 14.47 64.4135 14.7026 64.3949 14.9444H53.8744C53.9488 16.0234 54.3209 16.8699 54.9906 17.4839C55.679 18.0978 56.5068 18.4047 57.4742 18.4047C58.1998 18.4047 58.8044 18.2466 59.2881 17.9303C59.7904 17.5955 60.1625 17.1676 60.4044 16.6467H64.0321C63.7717 17.5211 63.3345 18.321 62.7206 19.0466C62.1252 19.7535 61.3811 20.3117 60.4881 20.7209C59.6137 21.1302 58.6184 21.3349 57.5022 21.3349ZM57.5301 9.726C56.6557 9.726 55.8836 9.97715 55.2139 10.4795C54.5441 10.9632 54.1162 11.7073 53.9302 12.7119H60.823C60.7671 11.8003 60.4323 11.0748 59.8183 10.5353C59.2044 9.99576 58.4417 9.726 57.5301 9.726ZM67.2403 21V7.15865H70.3937L70.6728 9.50275C71.1006 8.68418 71.7146 8.03304 72.5145 7.54934C73.3331 7.06563 74.2912 6.82378 75.3889 6.82378C77.1004 6.82378 78.4306 7.3633 79.3794 8.44233C80.3282 9.52136 80.8026 11.1027 80.8026 13.1863V21H77.2306V13.5212C77.2306 12.3306 76.9888 11.419 76.5051 10.7864C76.0214 10.1539 75.2679 9.83762 74.2447 9.83762C73.2401 9.83762 72.4122 10.1911 71.7611 10.8981C71.1286 11.605 70.8123 12.591 70.8123 13.8561V21H67.2403ZM90.7289 21.3349C89.3336 21.3349 88.0965 21.0372 87.0174 20.4419C85.9384 19.8466 85.0919 19.0094 84.478 17.9303C83.8641 16.8513 83.5571 15.6049 83.5571 14.191C83.5571 12.7584 83.8548 11.4841 84.4501 10.3678C85.064 9.2516 85.9012 8.38652 86.9616 7.77258C88.0406 7.14005 89.3057 6.82378 90.7568 6.82378C92.1149 6.82378 93.3149 7.12145 94.3567 7.71677C95.3985 8.3121 96.2078 9.13067 96.7845 10.1725C97.3798 11.1957 97.6775 12.3399 97.6775 13.6049C97.6775 13.8096 97.6682 14.0235 97.6496 14.2468C97.6496 14.47 97.6403 14.7026 97.6217 14.9444H87.1011C87.1756 16.0234 87.5476 16.8699 88.2174 17.4839C88.9057 18.0978 89.7336 18.4047 90.701 18.4047C91.4266 18.4047 92.0312 18.2466 92.5149 17.9303C93.0172 17.5955 93.3893 17.1676 93.6311 16.6467H97.2589C96.9984 17.5211 96.5613 18.321 95.9473 19.0466C95.352 19.7535 94.6078 20.3117 93.7148 20.7209C92.8405 21.1302 91.8452 21.3349 90.7289 21.3349ZM90.7568 9.726C89.8824 9.726 89.1104 9.97715 88.4406 10.4795C87.7709 10.9632 87.343 11.7073 87.157 12.7119H94.0497C93.9939 11.8003 93.659 11.0748 93.0451 10.5353C92.4312 9.99576 91.6684 9.726 90.7568 9.726ZM101.109 21V10.1446H99.2113V7.15865H101.109V5.54011C101.109 3.86575 101.528 2.6751 102.365 1.96815C103.22 1.2612 104.374 0.907724 105.825 0.907724H107.36V3.94947H106.383C105.769 3.94947 105.332 4.0704 105.072 4.31225C104.811 4.5541 104.681 4.96339 104.681 5.54011V7.15865H113.611V21H110.039V10.1446H104.681V21H101.109ZM111.853 5.17733C111.202 5.17733 110.662 4.98199 110.234 4.59131C109.825 4.20063 109.62 3.70762 109.62 3.11229C109.62 2.51697 109.825 2.03326 110.234 1.66119C110.662 1.2705 111.202 1.07516 111.853 1.07516C112.504 1.07516 113.034 1.2705 113.443 1.66119C113.871 2.03326 114.085 2.51697 114.085 3.11229C114.085 3.70762 113.871 4.20063 113.443 4.59131C113.034 4.98199 112.504 5.17733 111.853 5.17733ZM123.343 21C121.892 21 120.729 20.6465 119.855 19.9396C118.98 19.2326 118.543 17.9769 118.543 16.1723V10.1446H116.171V7.15865H118.543L118.962 3.44717H122.115V7.15865H125.855V10.1446H122.115V16.2002C122.115 16.8699 122.255 17.335 122.534 17.5955C122.831 17.8373 123.334 17.9583 124.041 17.9583H125.771V21H123.343ZM134.427 21.3349C133.2 21.3349 132.121 21.1395 131.19 20.7488C130.26 20.3396 129.516 19.7814 128.958 19.0745C128.4 18.3675 128.065 17.549 127.953 16.6188H131.553C131.665 17.1583 131.962 17.6234 132.446 18.0141C132.948 18.3861 133.59 18.5722 134.372 18.5722C135.153 18.5722 135.72 18.414 136.074 18.0978C136.446 17.7815 136.632 17.4187 136.632 17.0095C136.632 16.4141 136.372 16.0141 135.851 15.8095C135.33 15.5862 134.604 15.3723 133.674 15.1677C133.079 15.0374 132.474 14.8793 131.86 14.6933C131.246 14.5072 130.679 14.2747 130.158 13.9956C129.656 13.6979 129.246 13.3259 128.93 12.8794C128.614 12.4143 128.456 11.8469 128.456 11.1771C128.456 9.94925 128.939 8.91673 129.907 8.07955C130.893 7.24237 132.269 6.82378 134.037 6.82378C135.674 6.82378 136.976 7.20516 137.944 7.96793C138.93 8.73069 139.516 9.78181 139.702 11.1213H136.325C136.12 10.0981 135.348 9.58647 134.009 9.58647C133.339 9.58647 132.818 9.7167 132.446 9.97715C132.093 10.2376 131.916 10.5632 131.916 10.9539C131.916 11.3631 132.186 11.6887 132.725 11.9306C133.265 12.1724 133.981 12.3957 134.874 12.6003C135.841 12.8236 136.725 13.0747 137.525 13.3538C138.344 13.6142 138.995 14.0142 139.478 14.5537C139.962 15.0746 140.204 15.8281 140.204 16.8141C140.223 17.6699 139.999 18.442 139.534 19.1303C139.069 19.8186 138.399 20.3582 137.525 20.7488C136.651 21.1395 135.618 21.3349 134.427 21.3349ZM0.628599 59V39.4658H4.8703L11.0933 51.8561L17.2326 39.4658H21.4743V59H17.9024V45.5214L12.4607 56.2094H9.64222L4.20056 45.5214V59H0.628599ZM29.7378 59.3349C28.5472 59.3349 27.5705 59.1488 26.8077 58.7768C26.045 58.3861 25.4775 57.8745 25.1055 57.2419C24.7334 56.6094 24.5473 55.9117 24.5473 55.149C24.5473 53.8653 25.0496 52.8235 26.0543 52.0235C27.0589 51.2235 28.5658 50.8236 30.575 50.8236H34.0912V50.4887C34.0912 49.5399 33.8214 48.8422 33.2819 48.3957C32.7424 47.9492 32.0726 47.726 31.2727 47.726C30.5471 47.726 29.9146 47.9027 29.3751 48.2562C28.8356 48.5911 28.5007 49.0934 28.3705 49.7631H24.8822C24.9752 48.7585 25.3101 47.8841 25.8868 47.14C26.4822 46.3958 27.2449 45.8284 28.1751 45.4377C29.1053 45.0284 30.1471 44.8238 31.3006 44.8238C33.2726 44.8238 34.826 45.3168 35.9609 46.3028C37.0957 47.2888 37.6631 48.6841 37.6631 50.4887V59H34.6214L34.2865 56.7675C33.8772 57.5117 33.3005 58.1256 32.5563 58.6093C31.8308 59.093 30.8913 59.3349 29.7378 59.3349ZM30.5471 56.5443C31.5703 56.5443 32.361 56.2094 32.9191 55.5397C33.4958 54.8699 33.8586 54.042 34.0075 53.056H30.9657C30.0169 53.056 29.3379 53.2328 28.9286 53.5862C28.5193 53.9211 28.3146 54.3397 28.3146 54.842C28.3146 55.3815 28.5193 55.8001 28.9286 56.0978C29.3379 56.3954 29.8774 56.5443 30.5471 56.5443ZM40.8571 59V45.1587H44.0105L44.2896 47.5028C44.7175 46.6842 45.3314 46.033 46.1314 45.5493C46.9499 45.0656 47.908 44.8238 49.0057 44.8238C50.7172 44.8238 52.0474 45.3633 52.9962 46.4423C53.945 47.5214 54.4194 49.1027 54.4194 51.1863V59H50.8475V51.5212C50.8475 50.3306 50.6056 49.419 50.1219 48.7864C49.6382 48.1539 48.8847 47.8376 47.8615 47.8376C46.8569 47.8376 46.029 48.1911 45.3779 48.8981C44.7454 49.605 44.4291 50.591 44.4291 51.8561V59H40.8571ZM62.3923 59.3349C61.2017 59.3349 60.225 59.1488 59.4622 58.7768C58.6994 58.3861 58.132 57.8745 57.7599 57.2419C57.3879 56.6094 57.2018 55.9117 57.2018 55.149C57.2018 53.8653 57.7041 52.8235 58.7087 52.0235C59.7133 51.2235 61.2203 50.8236 63.2295 50.8236H66.7456V50.4887C66.7456 49.5399 66.4759 48.8422 65.9364 48.3957C65.3969 47.9492 64.7271 47.726 63.9271 47.726C63.2016 47.726 62.5691 47.9027 62.0295 48.2562C61.49 48.5911 61.1552 49.0934 61.0249 49.7631H57.5367C57.6297 48.7585 57.9646 47.8841 58.5413 47.14C59.1366 46.3958 59.8994 45.8284 60.8296 45.4377C61.7598 45.0284 62.8016 44.8238 63.9551 44.8238C65.9271 44.8238 67.4805 45.3168 68.6153 46.3028C69.7502 47.2888 70.3176 48.6841 70.3176 50.4887V59H67.2759L66.941 56.7675C66.5317 57.5117 65.955 58.1256 65.2108 58.6093C64.4853 59.093 63.5458 59.3349 62.3923 59.3349ZM63.2016 56.5443C64.2248 56.5443 65.0155 56.2094 65.5736 55.5397C66.1503 54.8699 66.5131 54.042 66.6619 53.056H63.6202C62.6714 53.056 61.9923 53.2328 61.583 53.5862C61.1738 53.9211 60.9691 54.3397 60.9691 54.842C60.9691 55.3815 61.1738 55.8001 61.583 56.0978C61.9923 56.3954 62.5318 56.5443 63.2016 56.5443ZM79.3719 54.8699C78.7021 54.8699 78.0789 54.7955 77.5022 54.6467L76.4696 55.6792C76.7859 55.8466 77.2138 55.9862 77.7533 56.0978C78.2928 56.2094 79.1672 56.321 80.3765 56.4327C82.2183 56.6001 83.5577 57.0373 84.3949 57.7442C85.2321 58.4512 85.6507 59.4279 85.6507 60.6744C85.6507 61.4929 85.4274 62.265 84.9809 62.9905C84.5345 63.7347 83.8461 64.33 82.9159 64.7765C81.9857 65.2416 80.7951 65.4742 79.344 65.4742C77.3719 65.4742 75.7813 65.1021 74.572 64.3579C73.3628 63.6324 72.7581 62.5348 72.7581 61.065C72.7581 59.8186 73.3628 58.7395 74.572 57.828C74.2 57.6605 73.8744 57.4838 73.5953 57.2977C73.3349 57.1117 73.1023 56.9164 72.8977 56.7117V56.0699L75.3255 53.5025C74.2465 52.5537 73.707 51.3352 73.707 49.8469C73.707 48.9167 73.9302 48.0702 74.3767 47.3074C74.8418 46.5446 75.4929 45.94 76.3301 45.4935C77.1673 45.047 78.1812 44.8238 79.3719 44.8238C80.1532 44.8238 80.8788 44.9354 81.5485 45.1587H86.7948V47.3353L84.4228 47.5028C84.7949 48.2097 84.9809 48.9911 84.9809 49.8469C84.9809 50.777 84.7577 51.6235 84.3112 52.3863C83.8647 53.1491 83.2136 53.7537 82.3578 54.2002C81.5206 54.6467 80.5253 54.8699 79.3719 54.8699ZM79.3719 52.1351C80.0974 52.1351 80.6927 51.9398 81.1578 51.5491C81.6415 51.1584 81.8834 50.6003 81.8834 49.8748C81.8834 49.1492 81.6415 48.5911 81.1578 48.2004C80.6927 47.8097 80.0974 47.6144 79.3719 47.6144C78.6091 47.6144 77.9952 47.8097 77.5301 48.2004C77.065 48.5911 76.8324 49.1492 76.8324 49.8748C76.8324 50.6003 77.065 51.1584 77.5301 51.5491C77.9952 51.9398 78.6091 52.1351 79.3719 52.1351ZM76.0231 60.7023C76.0231 61.3906 76.3394 61.9022 76.9719 62.2371C77.6231 62.5906 78.4138 62.7673 79.344 62.7673C80.2369 62.7673 80.9625 62.5813 81.5206 62.2092C82.0787 61.8557 82.3578 61.372 82.3578 60.7581C82.3578 60.2558 82.1718 59.8372 81.7997 59.5023C81.4462 59.1674 80.7299 58.9628 79.6509 58.8884C78.8882 58.8326 78.1812 58.7488 77.5301 58.6372C76.9905 58.9349 76.5999 59.2605 76.358 59.6139C76.1348 59.9674 76.0231 60.3302 76.0231 60.7023ZM95.3651 59.3349C93.9698 59.3349 92.7326 59.0372 91.6536 58.4419C90.5746 57.8466 89.7281 57.0094 89.1142 55.9303C88.5002 54.8513 88.1933 53.6049 88.1933 52.191C88.1933 50.7584 88.4909 49.4841 89.0863 48.3678C89.7002 47.2516 90.5374 46.3865 91.5978 45.7726C92.6768 45.1401 93.9419 44.8238 95.393 44.8238C96.7511 44.8238 97.951 45.1214 98.9929 45.7168C100.035 46.3121 100.844 47.1307 101.421 48.1725C102.016 49.1957 102.314 50.3399 102.314 51.6049C102.314 51.8096 102.304 52.0235 102.286 52.2468C102.286 52.47 102.276 52.7026 102.258 52.9444H91.7373C91.8117 54.0234 92.1838 54.8699 92.8536 55.4839C93.5419 56.0978 94.3698 56.4047 95.3372 56.4047C96.0627 56.4047 96.6674 56.2466 97.1511 55.9303C97.6534 55.5955 98.0255 55.1676 98.2673 54.6467H101.895C101.635 55.5211 101.197 56.321 100.584 57.0466C99.9882 57.7535 99.244 58.3117 98.351 58.7209C97.4766 59.1302 96.4813 59.3349 95.3651 59.3349ZM95.393 47.726C94.5186 47.726 93.7465 47.9772 93.0768 48.4795C92.4071 48.9632 91.9792 49.7073 91.7931 50.7119H98.6859C98.6301 49.8003 98.2952 49.0748 97.6813 48.5353C97.0674 47.9958 96.3046 47.726 95.393 47.726ZM105.103 59V45.1587H108.257L108.564 47.0284C109.01 46.3586 109.596 45.8284 110.322 45.4377C111.066 45.0284 111.922 44.8238 112.889 44.8238C115.028 44.8238 116.545 45.6517 117.438 47.3074C117.94 46.5446 118.61 45.94 119.447 45.4935C120.303 45.047 121.233 44.8238 122.238 44.8238C124.042 44.8238 125.428 45.3633 126.395 46.4423C127.363 47.5214 127.847 49.1027 127.847 51.1863V59H124.275V51.5212C124.275 50.3306 124.042 49.419 123.577 48.7864C123.13 48.1539 122.433 47.8376 121.484 47.8376C120.517 47.8376 119.735 48.1911 119.14 48.8981C118.563 49.605 118.275 50.591 118.275 51.8561V59H114.703V51.5212C114.703 50.3306 114.47 49.419 114.005 48.7864C113.54 48.1539 112.824 47.8376 111.856 47.8376C110.908 47.8376 110.136 48.1911 109.54 48.8981C108.964 49.605 108.675 50.591 108.675 51.8561V59H105.103ZM137.749 59.3349C136.353 59.3349 135.116 59.0372 134.037 58.4419C132.958 57.8466 132.112 57.0094 131.498 55.9303C130.884 54.8513 130.577 53.6049 130.577 52.191C130.577 50.7584 130.874 49.4841 131.47 48.3678C132.084 47.2516 132.921 46.3865 133.981 45.7726C135.06 45.1401 136.325 44.8238 137.776 44.8238C139.135 44.8238 140.334 45.1214 141.376 45.7168C142.418 46.3121 143.227 47.1307 143.804 48.1725C144.399 49.1957 144.697 50.3399 144.697 51.6049C144.697 51.8096 144.688 52.0235 144.669 52.2468C144.669 52.47 144.66 52.7026 144.641 52.9444H134.121C134.195 54.0234 134.567 54.8699 135.237 55.4839C135.925 56.0978 136.753 56.4047 137.721 56.4047C138.446 56.4047 139.051 56.2466 139.534 55.9303C140.037 55.5955 140.409 55.1676 140.651 54.6467H144.278C144.018 55.5211 143.581 56.321 142.967 57.0466C142.372 57.7535 141.627 58.3117 140.734 58.7209C139.86 59.1302 138.865 59.3349 137.749 59.3349ZM137.776 47.726C136.902 47.726 136.13 47.9772 135.46 48.4795C134.79 48.9632 134.363 49.7073 134.177 50.7119H141.069C141.014 49.8003 140.679 49.0748 140.065 48.5353C139.451 47.9958 138.688 47.726 137.776 47.726ZM147.487 59V45.1587H150.64L150.919 47.5028C151.347 46.6842 151.961 46.033 152.761 45.5493C153.579 45.0656 154.538 44.8238 155.635 44.8238C157.347 44.8238 158.677 45.3633 159.626 46.4423C160.575 47.5214 161.049 49.1027 161.049 51.1863V59H157.477V51.5212C157.477 50.3306 157.235 49.419 156.751 48.7864C156.268 48.1539 155.514 47.8376 154.491 47.8376C153.486 47.8376 152.659 48.1911 152.007 48.8981C151.375 49.605 151.059 50.591 151.059 51.8561V59H147.487ZM170.417 59C168.966 59 167.803 58.6465 166.929 57.9396C166.055 57.2326 165.617 55.9769 165.617 54.1723V48.1446H163.245V45.1587H165.617L166.036 41.4472H169.189V45.1587H172.929V48.1446H169.189V54.2002C169.189 54.8699 169.329 55.335 169.608 55.5955C169.906 55.8373 170.408 55.9583 171.115 55.9583H172.845V59H170.417Z" fill="white"/>
</svg>
