<svg width="172" height="105" viewBox="0 0 172 105" fill="none" xmlns="http://www.w3.org/2000/svg">
<g filter="url(#filter0_f_2401_1992)">
<path d="M135.167 51.8671C135.167 60.1251 137.467 70.4323 98.3607 66.8195C78.0333 66.8195 61.5547 60.1251 61.5547 51.8671C61.5547 43.6091 63.8551 57.3673 100.661 37.6519C120.988 37.6519 135.167 36.9147 135.167 51.8671Z" fill="url(#paint0_linear_2401_1992)"/>
</g>
<g filter="url(#filter1_f_2401_1992)">
<path d="M135.167 51.8671C135.167 60.1251 137.467 70.4323 98.3607 66.8195C78.0333 66.8195 61.5547 60.1251 61.5547 51.8671C61.5547 43.6091 63.8551 57.3673 100.661 37.6519C120.988 37.6519 135.167 36.9147 135.167 51.8671Z" fill="url(#paint1_linear_2401_1992)"/>
</g>
<g filter="url(#filter2_f_2401_1992)">
<path d="M135.167 51.8671C135.167 60.1251 137.467 70.4323 98.3607 66.8195C78.0333 66.8195 61.5547 60.1251 61.5547 51.8671C61.5547 43.6091 63.8551 57.3673 100.661 37.6519C120.988 37.6519 135.167 36.9147 135.167 51.8671Z" fill="url(#paint2_linear_2401_1992)"/>
</g>
<rect x="0.30718" y="36.2143" width="136.297" height="44.2822" rx="22.1411" stroke="url(#paint3_linear_2401_1992)" stroke-width="0.575093"/>
<rect x="0.594727" y="36.5018" width="135.722" height="43.7071" rx="21.8535" fill="#0A0C30"/>
<rect x="1.16982" y="37.0769" width="134.572" height="42.5569" rx="21.2785" stroke="white" stroke-opacity="0.12" stroke-width="1.15019"/>
<path d="M34.5436 54.4994C32.0316 54.4994 30.518 56.3512 30.518 59.1048C30.518 61.9227 32.1605 63.5491 34.5598 63.5491C36.5404 63.5491 38.1345 62.5346 38.1345 60.1836V59.8455H34.2377V58.4446H39.616V64.8695H38.2956L38.1828 63.2914C37.5548 64.3059 36.1378 65.0466 34.4309 65.0466C31.1299 65.0466 28.8594 62.6634 28.8594 59.0726C28.8594 55.53 31.146 53.018 34.5759 53.018C37.1201 53.018 39.1007 54.4833 39.4872 56.7216H37.8125C37.3777 55.2401 36.0895 54.4994 34.5436 54.4994ZM44.8437 65.0466C42.5249 65.0466 40.9307 63.372 40.9307 60.9244C40.9307 58.4607 42.4927 56.7538 44.7792 56.7538C47.0175 56.7538 48.4828 58.2996 48.4828 60.6345V61.1981L42.3961 61.2142C42.5088 62.8728 43.3783 63.7906 44.8759 63.7906C46.0514 63.7906 46.8243 63.3075 47.0819 62.4058H48.499C48.1125 64.0966 46.7921 65.0466 44.8437 65.0466ZM44.7792 58.0259C43.4588 58.0259 42.6215 58.8149 42.4283 60.1997H46.9692C46.9692 58.8954 46.1158 58.0259 44.7792 58.0259ZM52.156 64.8534H50.6424V58.2513H49.0965V56.9792H50.6424V54.5155H52.156V56.9792H53.7019V58.2513H52.156V64.8534ZM58.4972 62.5668H59.9464C59.9464 63.372 60.5583 63.855 61.5567 63.855C62.6194 63.855 63.2313 63.4203 63.2313 62.6956C63.2313 62.1643 62.9737 61.8422 62.1525 61.6329L60.7676 61.3108C59.3667 60.9727 58.7065 60.2803 58.7065 59.1209C58.7065 57.6716 59.9303 56.7538 61.6694 56.7538C63.3924 56.7538 64.5195 57.7199 64.5517 59.2175H63.1025C63.0703 58.4285 62.5389 57.9293 61.6211 57.9293C60.671 57.9293 60.1396 58.3479 60.1396 59.0726C60.1396 59.6039 60.5261 59.9582 61.299 60.1514L62.6838 60.4896C64.0204 60.8116 64.6806 61.4235 64.6806 62.599C64.6806 64.0966 63.3924 65.0466 61.5245 65.0466C59.6727 65.0466 58.4972 64.0644 58.4972 62.5668ZM68.4203 64.8534H66.9066V58.2513H65.3608V56.9792H66.9066V54.5155H68.4203V56.9792H69.9661V58.2513H68.4203V64.8534ZM73.3718 65.0466C71.6811 65.0466 70.6827 64.0966 70.6827 62.6634C70.6827 61.2142 71.7616 60.3125 73.6134 60.1675L76.0932 59.9743V59.7489C76.0932 58.4285 75.3041 57.9615 74.2414 57.9615C72.9693 57.9615 72.2446 58.5251 72.2446 59.4751H70.9242C70.9242 57.8327 72.2768 56.7538 74.3058 56.7538C76.2542 56.7538 77.5746 57.7843 77.5746 59.9099V64.8534H76.2864L76.1254 63.5813C75.7228 64.483 74.6439 65.0466 73.3718 65.0466ZM73.8066 63.8711C75.2397 63.8711 76.1093 62.9372 76.1093 61.4557V61.0371L74.0964 61.1981C72.7599 61.3269 72.2124 61.8422 72.2124 62.6151C72.2124 63.4525 72.8243 63.8711 73.8066 63.8711ZM84.0185 56.9148V58.2996H83.3422C81.9091 58.2996 81.0235 59.1692 81.0235 60.6828V64.8534H79.5098V56.9953H80.9268L81.0235 58.1869C81.3455 57.3657 82.1345 56.8182 83.2134 56.8182C83.4872 56.8182 83.7126 56.8504 84.0185 56.9148ZM87.8139 64.8534H86.3002V58.2513H84.7544V56.9792H86.3002V54.5155H87.8139V56.9792H89.3597V58.2513H87.8139V64.8534ZM93.8761 65.0466C91.5573 65.0466 89.9632 63.372 89.9632 60.9244C89.9632 58.4607 91.5251 56.7538 93.8117 56.7538C96.05 56.7538 97.5153 58.2996 97.5153 60.6345V61.1981L91.4285 61.2142C91.5412 62.8728 92.4108 63.7906 93.9083 63.7906C95.0838 63.7906 95.8567 63.3075 96.1144 62.4058H97.5314C97.1449 64.0966 95.8245 65.0466 93.8761 65.0466ZM93.8117 58.0259C92.4913 58.0259 91.654 58.8149 91.4607 60.1997H96.0017C96.0017 58.8954 95.1482 58.0259 93.8117 58.0259ZM102.201 65.0466C99.9145 65.0466 98.5296 63.3397 98.5296 60.9405C98.5296 58.5251 99.9306 56.7538 102.265 56.7538C103.473 56.7538 104.488 57.2852 105.019 58.2513V53.0019H106.517V64.8534H105.164L105.035 63.4203C104.52 64.4991 103.457 65.0466 102.201 65.0466ZM102.507 63.6779C104.053 63.6779 105.003 62.5346 105.003 60.8922C105.003 59.2819 104.053 58.1225 102.507 58.1225C100.961 58.1225 100.059 59.2819 100.059 60.8922C100.059 62.5185 100.961 63.6779 102.507 63.6779Z" fill="white"/>
<defs>
<filter id="filter0_f_2401_1992" x="24.7487" y="0.840027" width="147.25" height="103.528" filterUnits="userSpaceOnUse" color-interpolation-filters="sRGB">
<feFlood flood-opacity="0" result="BackgroundImageFix"/>
<feBlend mode="normal" in="SourceGraphic" in2="BackgroundImageFix" result="shape"/>
<feGaussianBlur stdDeviation="18.403" result="effect1_foregroundBlur_2401_1992"/>
</filter>
<filter id="filter1_f_2401_1992" x="47.7524" y="23.8438" width="101.242" height="57.5207" filterUnits="userSpaceOnUse" color-interpolation-filters="sRGB">
<feFlood flood-opacity="0" result="BackgroundImageFix"/>
<feBlend mode="normal" in="SourceGraphic" in2="BackgroundImageFix" result="shape"/>
<feGaussianBlur stdDeviation="6.90112" result="effect1_foregroundBlur_2401_1992"/>
</filter>
<filter id="filter2_f_2401_1992" x="56.9539" y="33.0452" width="82.8392" height="39.1178" filterUnits="userSpaceOnUse" color-interpolation-filters="sRGB">
<feFlood flood-opacity="0" result="BackgroundImageFix"/>
<feBlend mode="normal" in="SourceGraphic" in2="BackgroundImageFix" result="shape"/>
<feGaussianBlur stdDeviation="2.30037" result="effect1_foregroundBlur_2401_1992"/>
</filter>
<linearGradient id="paint0_linear_2401_1992" x1="128.266" y1="37.6519" x2="48.9026" y2="60.0806" gradientUnits="userSpaceOnUse">
<stop stop-color="#3ADCFF"/>
<stop offset="1" stop-color="#3ADCFF" stop-opacity="0"/>
</linearGradient>
<linearGradient id="paint1_linear_2401_1992" x1="128.266" y1="37.6519" x2="48.9026" y2="60.0806" gradientUnits="userSpaceOnUse">
<stop stop-color="#3ADCFF"/>
<stop offset="1" stop-color="#3ADCFF" stop-opacity="0"/>
</linearGradient>
<linearGradient id="paint2_linear_2401_1992" x1="128.266" y1="37.6519" x2="48.9026" y2="60.0806" gradientUnits="userSpaceOnUse">
<stop stop-color="#3ADCFF"/>
<stop offset="1" stop-color="#3ADCFF" stop-opacity="0"/>
</linearGradient>
<linearGradient id="paint3_linear_2401_1992" x1="92.6097" y1="36.5018" x2="68.4557" y2="80.2089" gradientUnits="userSpaceOnUse">
<stop stop-color="#3ADCFF"/>
<stop offset="1" stop-color="#247A8D" stop-opacity="0"/>
</linearGradient>
</defs>
</svg>
